<svg xmlns="http://www.w3.org/2000/svg" xmlns:xlink="http://www.w3.org/1999/xlink" width="500" zoomAndPan="magnify" viewBox="0 0 375 374.999991" height="500" preserveAspectRatio="xMidYMid meet" version="1.0"><defs><clipPath id="0ec6bb77da"><path d="M 8.222656 86 L 366.722656 86 L 366.722656 319.808594 L 8.222656 319.808594 Z M 8.222656 86 " clip-rule="nonzero"/></clipPath><clipPath id="2faff7a623"><path d="M 164 55.058594 L 211 55.058594 L 211 141 L 164 141 Z M 164 55.058594 " clip-rule="nonzero"/></clipPath></defs><g clip-path="url(#0ec6bb77da)"><path fill="#f8c460" d="M 226.417969 140.710938 L 148.523438 140.710938 C 139.914062 140.710938 132.945312 133.746094 132.945312 125.140625 C 132.945312 116.53125 139.914062 109.566406 148.523438 109.566406 L 226.417969 109.566406 C 235.03125 109.566406 242 116.53125 242 125.140625 C 242 133.746094 235.03125 140.710938 226.417969 140.710938 Z M 351.050781 86.203125 L 23.890625 86.203125 C 15.28125 86.203125 8.3125 93.171875 8.3125 101.777344 L 8.3125 304.234375 C 8.3125 312.84375 15.28125 319.808594 23.890625 319.808594 L 351.050781 319.808594 C 359.664062 319.808594 366.628906 312.84375 366.628906 304.234375 L 366.628906 101.777344 C 366.628906 93.171875 359.664062 86.203125 351.050781 86.203125 " fill-opacity="1" fill-rule="nonzero"/></g><g clip-path="url(#2faff7a623)"><path fill="#7a838b" d="M 210.839844 140.710938 L 164.101562 140.710938 L 164.101562 55.058594 L 210.839844 55.058594 L 210.839844 140.710938 " fill-opacity="1" fill-rule="nonzero"/></g><path fill="#99c5fd" d="M 164.101562 288.660156 L 39.46875 288.660156 L 39.46875 164.074219 L 164.101562 164.074219 L 164.101562 288.660156 " fill-opacity="1" fill-rule="nonzero"/><path fill="#ff938d" d="M 125.15625 218.578125 C 125.15625 231.476562 114.6875 241.941406 101.785156 241.941406 C 88.886719 241.941406 78.417969 231.476562 78.417969 218.578125 C 78.417969 205.683594 88.886719 195.21875 101.785156 195.21875 C 114.6875 195.21875 125.15625 205.683594 125.15625 218.578125 " fill-opacity="1" fill-rule="nonzero"/><path fill="#ff938d" d="M 101.785156 241.941406 C 80.273438 241.941406 62.839844 259.371094 62.839844 280.875 L 62.839844 288.660156 L 140.734375 288.660156 L 140.734375 280.875 C 140.734375 259.371094 123.300781 241.941406 101.785156 241.941406 " fill-opacity="1" fill-rule="nonzero"/><path fill="#7a838b" d="M 335.472656 156.285156 L 226.417969 156.285156 C 222.128906 156.285156 218.628906 159.785156 218.628906 164.074219 C 218.628906 168.363281 222.128906 171.859375 226.417969 171.859375 L 335.472656 171.859375 C 339.761719 171.859375 343.261719 168.363281 343.261719 164.074219 C 343.261719 159.785156 339.761719 156.285156 335.472656 156.285156 " fill-opacity="1" fill-rule="nonzero"/><path fill="#7a838b" d="M 335.472656 187.433594 L 195.261719 187.433594 C 190.96875 187.433594 187.472656 190.929688 187.472656 195.21875 C 187.472656 199.507812 190.96875 203.007812 195.261719 203.007812 L 335.472656 203.007812 C 339.761719 203.007812 343.261719 199.507812 343.261719 195.21875 C 343.261719 190.929688 339.761719 187.433594 335.472656 187.433594 " fill-opacity="1" fill-rule="nonzero"/><path fill="#7a838b" d="M 335.472656 218.578125 L 195.261719 218.578125 C 190.96875 218.578125 187.472656 222.078125 187.472656 226.367188 C 187.472656 230.65625 190.96875 234.152344 195.261719 234.152344 L 335.472656 234.152344 C 339.761719 234.152344 343.261719 230.65625 343.261719 226.367188 C 343.261719 222.078125 339.761719 218.578125 335.472656 218.578125 " fill-opacity="1" fill-rule="nonzero"/><path fill="#7a838b" d="M 335.472656 249.726562 L 195.261719 249.726562 C 190.96875 249.726562 187.472656 253.226562 187.472656 257.515625 C 187.472656 261.800781 190.96875 265.300781 195.261719 265.300781 L 335.472656 265.300781 C 339.761719 265.300781 343.261719 261.800781 343.261719 257.515625 C 343.261719 253.226562 339.761719 249.726562 335.472656 249.726562 " fill-opacity="1" fill-rule="nonzero"/><path fill="#7a838b" d="M 335.472656 280.875 L 195.261719 280.875 C 190.96875 280.875 187.472656 284.371094 187.472656 288.660156 C 187.472656 292.949219 190.96875 296.449219 195.261719 296.449219 L 335.472656 296.449219 C 339.761719 296.449219 343.261719 292.949219 343.261719 288.660156 C 343.261719 284.371094 339.761719 280.875 335.472656 280.875 " fill-opacity="1" fill-rule="nonzero"/></svg>