<svg xmlns="http://www.w3.org/2000/svg" xmlns:xlink="http://www.w3.org/1999/xlink" width="500" zoomAndPan="magnify" viewBox="0 0 375 374.999991" height="500" preserveAspectRatio="xMidYMid meet" version="1.0"><defs><clipPath id="5c4f442d67"><path d="M 8.039062 86 L 367.289062 86 L 367.289062 321.929688 L 8.039062 321.929688 Z M 8.039062 86 " clip-rule="nonzero"/></clipPath><clipPath id="d540bf6903"><path d="M 8.039062 86 L 75 86 L 75 156 L 8.039062 156 Z M 8.039062 86 " clip-rule="nonzero"/></clipPath><clipPath id="70ead7b185"><path d="M 300 86 L 367.289062 86 L 367.289062 156 L 300 156 Z M 300 86 " clip-rule="nonzero"/></clipPath><clipPath id="3ed1199718"><path d="M 64 53.429688 L 123 53.429688 L 123 156 L 64 156 Z M 64 53.429688 " clip-rule="nonzero"/></clipPath><clipPath id="bad0059734"><path d="M 252 53.429688 L 311 53.429688 L 311 156 L 252 156 Z M 252 53.429688 " clip-rule="nonzero"/></clipPath></defs><g clip-path="url(#5c4f442d67)"><path fill="#ffe4af" d="M 339.449219 321.929688 L 35.667969 321.929688 C 20.5 321.929688 8.070312 309.492188 8.070312 294.320312 L 8.070312 114.546875 C 8.070312 99.371094 20.5 86.9375 35.667969 86.9375 L 69.585938 86.9375 C 72.324219 86.9375 74.640625 89.046875 74.640625 91.785156 L 74.640625 145.527344 L 112.773438 145.527344 L 112.773438 91.785156 C 112.773438 89.046875 115.089844 86.9375 117.828125 86.9375 L 257.5 86.9375 C 260.238281 86.9375 262.347656 89.046875 262.347656 91.785156 L 262.347656 145.527344 L 300.6875 145.527344 L 300.6875 91.785156 C 300.6875 89.046875 302.792969 86.9375 305.535156 86.9375 L 339.449219 86.9375 C 354.828125 86.9375 367.257812 99.371094 367.257812 114.546875 L 367.257812 294.320312 C 367.257812 309.492188 354.828125 321.929688 339.449219 321.929688 Z M 339.449219 321.929688 " fill-opacity="1" fill-rule="evenodd"/></g><g clip-path="url(#d540bf6903)"><path fill="#ff3131" d="M 69.796875 155.433594 L 12.914062 155.433594 C 10.175781 155.433594 8.070312 153.113281 8.070312 150.375 L 8.070312 114.546875 C 8.070312 99.371094 20.5 86.9375 35.667969 86.9375 L 69.585938 86.9375 C 72.324219 86.9375 74.640625 89.046875 74.640625 91.785156 L 74.640625 150.375 C 74.640625 153.113281 72.324219 155.433594 69.796875 155.433594 Z M 69.796875 155.433594 " fill-opacity="1" fill-rule="evenodd"/></g><path fill="#ff3131" d="M 257.5 155.433594 L 117.828125 155.433594 C 115.089844 155.433594 112.773438 153.113281 112.773438 150.375 L 112.773438 91.785156 C 112.773438 89.046875 115.089844 86.9375 117.828125 86.9375 L 257.5 86.9375 C 260.238281 86.9375 262.347656 89.046875 262.347656 91.785156 L 262.347656 150.375 C 262.347656 153.113281 260.238281 155.433594 257.5 155.433594 Z M 257.5 155.433594 " fill-opacity="1" fill-rule="evenodd"/><g clip-path="url(#70ead7b185)"><path fill="#ff3131" d="M 362.414062 155.433594 L 305.535156 155.433594 C 302.792969 155.433594 300.6875 153.113281 300.6875 150.375 L 300.6875 91.785156 C 300.6875 89.046875 302.792969 86.9375 305.535156 86.9375 L 339.449219 86.9375 C 354.828125 86.9375 367.257812 99.371094 367.257812 114.546875 L 367.257812 150.375 C 367.257812 153.113281 364.941406 155.433594 362.414062 155.433594 Z M 362.414062 155.433594 " fill-opacity="1" fill-rule="evenodd"/></g><g clip-path="url(#3ed1199718)"><path fill="#ffa721" d="M 117.828125 155.433594 L 69.796875 155.433594 C 67.058594 155.433594 64.738281 153.113281 64.738281 150.375 L 64.738281 82.511719 C 64.738281 66.496094 77.800781 53.429688 93.8125 53.429688 C 109.613281 53.429688 122.671875 66.496094 122.671875 82.511719 L 122.671875 150.375 C 122.671875 153.113281 120.566406 155.433594 117.828125 155.433594 Z M 117.828125 155.433594 " fill-opacity="1" fill-rule="evenodd"/></g><g clip-path="url(#bad0059734)"><path fill="#ffa721" d="M 305.535156 155.433594 L 257.5 155.433594 C 254.761719 155.433594 252.65625 153.113281 252.65625 150.375 L 252.65625 82.511719 C 252.65625 66.496094 265.507812 53.429688 281.515625 53.429688 C 297.527344 53.429688 310.589844 66.496094 310.589844 82.511719 L 310.589844 150.375 C 310.589844 153.113281 308.273438 155.433594 305.535156 155.433594 Z M 305.535156 155.433594 " fill-opacity="1" fill-rule="evenodd"/></g><path fill="#ffa721" d="M 93.179688 225.402344 L 69.164062 225.402344 C 63.054688 225.402344 58 220.34375 58 214.234375 L 58 190.207031 C 58 183.882812 63.054688 178.828125 69.164062 178.828125 L 93.179688 178.828125 C 99.5 178.828125 104.554688 183.882812 104.554688 190.207031 L 104.554688 214.234375 C 104.554688 220.34375 99.5 225.402344 93.179688 225.402344 Z M 93.179688 225.402344 " fill-opacity="1" fill-rule="evenodd"/><path fill="#ffa721" d="M 235.171875 225.402344 L 211.152344 225.402344 C 204.835938 225.402344 199.777344 220.34375 199.777344 214.234375 L 199.777344 190.207031 C 199.777344 183.882812 204.835938 178.828125 211.152344 178.828125 L 235.171875 178.828125 C 241.28125 178.828125 246.335938 183.882812 246.335938 190.207031 L 246.335938 214.234375 C 246.335938 220.34375 241.28125 225.402344 235.171875 225.402344 Z M 235.171875 225.402344 " fill-opacity="1" fill-rule="evenodd"/><path fill="#ffa721" d="M 305.953125 225.402344 L 282.148438 225.402344 C 275.828125 225.402344 270.773438 220.34375 270.773438 214.234375 L 270.773438 190.207031 C 270.773438 183.882812 275.828125 178.828125 282.148438 178.828125 L 305.953125 178.828125 C 312.273438 178.828125 317.332031 183.882812 317.332031 190.207031 L 317.332031 214.234375 C 317.332031 220.34375 312.273438 225.402344 305.953125 225.402344 Z M 305.953125 225.402344 " fill-opacity="1" fill-rule="evenodd"/><path fill="#ffa721" d="M 93.179688 288.628906 L 69.164062 288.628906 C 63.054688 288.628906 58 283.570312 58 277.460938 L 58 253.433594 C 58 247.109375 63.054688 242.050781 69.164062 242.050781 L 93.179688 242.050781 C 99.5 242.050781 104.554688 247.320312 104.554688 253.433594 L 104.554688 277.460938 C 104.554688 283.570312 99.5 288.628906 93.179688 288.628906 Z M 93.179688 288.628906 " fill-opacity="1" fill-rule="evenodd"/><path fill="#ffa721" d="M 164.175781 288.628906 L 140.160156 288.628906 C 134.050781 288.628906 128.992188 283.570312 128.992188 277.460938 L 128.992188 253.433594 C 128.992188 247.109375 134.050781 242.050781 140.160156 242.050781 L 164.175781 242.050781 C 170.496094 242.050781 175.550781 247.320312 175.550781 253.433594 L 175.550781 277.460938 C 175.550781 283.570312 170.285156 288.628906 164.175781 288.628906 Z M 164.175781 288.628906 " fill-opacity="1" fill-rule="evenodd"/><path fill="#ffa721" d="M 235.171875 288.628906 L 211.152344 288.628906 C 204.835938 288.628906 199.777344 283.570312 199.777344 277.460938 L 199.777344 253.433594 C 199.777344 247.109375 204.835938 242.050781 211.152344 242.050781 L 235.171875 242.050781 C 241.28125 242.050781 246.335938 247.320312 246.335938 253.433594 L 246.335938 277.460938 C 246.335938 283.570312 241.28125 288.628906 235.171875 288.628906 Z M 235.171875 288.628906 " fill-opacity="1" fill-rule="evenodd"/><path fill="#ff3131" d="M 164.597656 231.09375 C 162.488281 231.09375 160.382812 230.460938 158.699219 229.195312 L 152.167969 224.347656 L 145.636719 229.195312 C 142.054688 231.515625 137.421875 231.515625 134.050781 229.195312 C 130.679688 226.667969 129.203125 222.242188 130.46875 218.027344 L 132.996094 210.441406 L 126.464844 205.59375 C 123.09375 203.0625 121.621094 198.636719 122.882812 194.632812 C 124.148438 190.628906 127.941406 187.890625 132.152344 187.890625 L 140.371094 187.890625 L 142.898438 180.089844 C 144.160156 176.085938 147.953125 173.347656 152.167969 173.347656 C 156.378906 173.347656 160.171875 176.085938 161.4375 180.089844 L 163.964844 187.890625 L 172.179688 187.890625 C 176.394531 187.890625 180.1875 190.628906 181.449219 194.632812 C 182.925781 198.636719 181.449219 203.0625 177.867188 205.59375 L 171.339844 210.441406 L 173.867188 218.027344 C 175.128906 222.242188 173.867188 226.667969 170.285156 229.195312 C 168.597656 230.25 166.492188 231.09375 164.597656 231.09375 Z M 164.597656 231.09375 " fill-opacity="1" fill-rule="evenodd"/></svg>