<svg xmlns="http://www.w3.org/2000/svg" xmlns:xlink="http://www.w3.org/1999/xlink" width="500" zoomAndPan="magnify" viewBox="0 0 375 374.999991" height="500" preserveAspectRatio="xMidYMid meet" version="1.0"><defs><clipPath id="6a6335a1ba"><path d="M 94 37.75 L 262 37.75 L 262 337 L 94 337 Z M 94 37.75 " clip-rule="nonzero"/></clipPath><clipPath id="3323cb4822"><path d="M 167 37.75 L 262 37.75 L 262 337 L 167 337 Z M 167 37.75 " clip-rule="nonzero"/></clipPath><clipPath id="40475a4edb"><path d="M 60.023438 281 L 81 281 L 81 292 L 60.023438 292 Z M 60.023438 281 " clip-rule="nonzero"/></clipPath></defs><g clip-path="url(#6a6335a1ba)"><path fill="#dc2f02" d="M 216.847656 213.492188 C 216.847656 213.8125 216.878906 214.128906 216.941406 214.445312 C 217.003906 214.757812 217.09375 215.0625 217.21875 215.359375 C 217.339844 215.65625 217.492188 215.9375 217.671875 216.203125 C 217.847656 216.472656 218.050781 216.71875 218.277344 216.945312 C 218.503906 217.171875 218.75 217.371094 219.019531 217.550781 C 219.285156 217.730469 219.566406 217.878906 219.863281 218.003906 C 220.160156 218.125 220.464844 218.21875 220.78125 218.28125 C 221.09375 218.34375 221.414062 218.375 221.734375 218.375 L 256.1875 218.375 C 256.632812 218.375 257.074219 218.4375 257.503906 218.5625 C 257.933594 218.683594 258.339844 218.863281 258.722656 219.097656 C 259.101562 219.328125 259.445312 219.609375 259.75 219.9375 C 260.054688 220.265625 260.308594 220.628906 260.511719 221.027344 C 260.714844 221.425781 260.863281 221.84375 260.953125 222.28125 C 261.042969 222.722656 261.070312 223.164062 261.039062 223.609375 C 261.003906 224.054688 260.914062 224.488281 260.761719 224.910156 C 260.609375 225.332031 260.402344 225.722656 260.144531 226.085938 L 181.710938 334.902344 C 181.484375 335.21875 181.226562 335.503906 180.9375 335.757812 C 180.644531 336.011719 180.324219 336.230469 179.980469 336.40625 C 179.636719 336.585938 179.277344 336.722656 178.898438 336.8125 C 178.523438 336.90625 178.140625 336.953125 177.75 336.953125 C 177.363281 336.953125 176.980469 336.90625 176.605469 336.8125 C 176.226562 336.722656 175.867188 336.585938 175.523438 336.40625 C 175.175781 336.230469 174.859375 336.011719 174.566406 335.757812 C 174.273438 335.503906 174.015625 335.21875 173.792969 334.902344 L 95.359375 226.085938 C 95.097656 225.722656 94.894531 225.332031 94.742188 224.910156 C 94.589844 224.488281 94.5 224.054688 94.464844 223.609375 C 94.433594 223.164062 94.460938 222.722656 94.550781 222.28125 C 94.640625 221.84375 94.785156 221.425781 94.992188 221.027344 C 95.195312 220.628906 95.449219 220.265625 95.753906 219.9375 C 96.058594 219.609375 96.402344 219.328125 96.78125 219.097656 C 97.164062 218.863281 97.570312 218.683594 98 218.5625 C 98.429688 218.4375 98.871094 218.375 99.316406 218.375 L 133.769531 218.375 C 134.089844 218.375 134.410156 218.34375 134.722656 218.28125 C 135.039062 218.21875 135.34375 218.125 135.640625 218.003906 C 135.9375 217.878906 136.21875 217.730469 136.484375 217.550781 C 136.75 217.371094 137 217.171875 137.226562 216.945312 C 137.453125 216.71875 137.65625 216.472656 137.832031 216.203125 C 138.011719 215.9375 138.160156 215.65625 138.285156 215.359375 C 138.40625 215.0625 138.5 214.757812 138.5625 214.445312 C 138.625 214.128906 138.65625 213.8125 138.65625 213.492188 L 138.65625 42.632812 C 138.65625 42.3125 138.6875 41.992188 138.75 41.679688 C 138.8125 41.363281 138.90625 41.058594 139.027344 40.761719 C 139.152344 40.46875 139.300781 40.1875 139.480469 39.917969 C 139.660156 39.652344 139.859375 39.40625 140.089844 39.179688 C 140.316406 38.953125 140.5625 38.75 140.828125 38.574219 C 141.09375 38.394531 141.375 38.246094 141.671875 38.121094 C 141.96875 38 142.273438 37.90625 142.589844 37.84375 C 142.90625 37.78125 143.222656 37.75 143.542969 37.75 L 211.960938 37.75 C 212.28125 37.75 212.597656 37.78125 212.914062 37.84375 C 213.226562 37.90625 213.53125 38 213.828125 38.121094 C 214.125 38.246094 214.40625 38.394531 214.675781 38.574219 C 214.941406 38.75 215.1875 38.953125 215.414062 39.179688 C 215.640625 39.40625 215.84375 39.652344 216.023438 39.917969 C 216.199219 40.1875 216.351562 40.46875 216.472656 40.761719 C 216.597656 41.058594 216.691406 41.363281 216.753906 41.679688 C 216.816406 41.992188 216.847656 42.3125 216.847656 42.632812 Z M 216.847656 213.492188 " fill-opacity="1" fill-rule="nonzero"/></g><g clip-path="url(#3323cb4822)"><path fill="#bc0404" d="M 260.144531 226.085938 L 181.710938 334.902344 C 181.484375 335.21875 181.226562 335.503906 180.9375 335.757812 C 180.644531 336.011719 180.324219 336.230469 179.980469 336.40625 C 179.636719 336.585938 179.277344 336.722656 178.898438 336.8125 C 178.523438 336.90625 178.140625 336.953125 177.75 336.953125 C 177.363281 336.953125 176.980469 336.90625 176.605469 336.8125 C 176.226562 336.722656 175.867188 336.585938 175.523438 336.40625 C 175.175781 336.230469 174.859375 336.011719 174.566406 335.757812 C 174.273438 335.503906 174.015625 335.21875 173.792969 334.902344 L 167.878906 326.699219 L 230.824219 235.851562 C 231.082031 235.484375 231.289062 235.09375 231.441406 234.671875 C 231.589844 234.253906 231.683594 233.820312 231.714844 233.371094 C 231.75 232.925781 231.71875 232.484375 231.632812 232.046875 C 231.542969 231.609375 231.394531 231.191406 231.191406 230.792969 C 230.988281 230.394531 230.730469 230.03125 230.429688 229.703125 C 230.125 229.375 229.78125 229.09375 229.398438 228.859375 C 229.019531 228.625 228.613281 228.445312 228.183594 228.324219 C 227.75 228.203125 227.3125 228.140625 226.863281 228.136719 L 202.1875 228.136719 C 201.863281 228.136719 201.546875 228.105469 201.230469 228.042969 C 200.917969 227.980469 200.613281 227.886719 200.316406 227.765625 C 200.019531 227.644531 199.738281 227.492188 199.472656 227.316406 C 199.203125 227.136719 198.957031 226.933594 198.730469 226.707031 C 198.503906 226.480469 198.300781 226.234375 198.121094 225.96875 C 197.945312 225.703125 197.792969 225.417969 197.671875 225.125 C 197.546875 224.828125 197.457031 224.523438 197.394531 224.207031 C 197.332031 223.894531 197.300781 223.574219 197.300781 223.253906 L 197.300781 37.75 L 211.960938 37.75 C 212.28125 37.75 212.597656 37.78125 212.914062 37.84375 C 213.226562 37.90625 213.53125 38 213.828125 38.121094 C 214.125 38.246094 214.40625 38.394531 214.675781 38.574219 C 214.941406 38.75 215.1875 38.953125 215.414062 39.179688 C 215.640625 39.40625 215.84375 39.652344 216.023438 39.917969 C 216.199219 40.1875 216.351562 40.46875 216.472656 40.761719 C 216.597656 41.058594 216.691406 41.363281 216.753906 41.679688 C 216.816406 41.992188 216.847656 42.3125 216.847656 42.632812 L 216.847656 213.492188 C 216.847656 213.8125 216.878906 214.128906 216.941406 214.445312 C 217.003906 214.757812 217.09375 215.0625 217.21875 215.359375 C 217.339844 215.65625 217.492188 215.9375 217.671875 216.203125 C 217.847656 216.472656 218.050781 216.71875 218.277344 216.945312 C 218.503906 217.171875 218.75 217.371094 219.019531 217.550781 C 219.285156 217.730469 219.566406 217.878906 219.863281 218.003906 C 220.160156 218.125 220.464844 218.21875 220.78125 218.28125 C 221.09375 218.34375 221.414062 218.375 221.734375 218.375 L 256.1875 218.375 C 256.632812 218.375 257.074219 218.4375 257.503906 218.5625 C 257.933594 218.683594 258.339844 218.863281 258.722656 219.097656 C 259.101562 219.328125 259.445312 219.609375 259.75 219.9375 C 260.054688 220.265625 260.308594 220.628906 260.511719 221.027344 C 260.714844 221.425781 260.863281 221.84375 260.953125 222.28125 C 261.042969 222.722656 261.070312 223.164062 261.039062 223.609375 C 261.003906 224.054688 260.914062 224.488281 260.761719 224.910156 C 260.609375 225.332031 260.402344 225.722656 260.144531 226.085938 Z M 260.144531 226.085938 " fill-opacity="1" fill-rule="nonzero"/></g><path fill="#fbde08" d="M 275.488281 135.382812 C 275.488281 137.304688 275.394531 139.21875 275.207031 141.125 C 275.019531 143.035156 274.738281 144.929688 274.363281 146.8125 C 273.988281 148.695312 273.519531 150.554688 272.964844 152.390625 C 272.40625 154.226562 271.761719 156.03125 271.023438 157.800781 C 270.289062 159.574219 269.46875 161.308594 268.5625 163 C 267.660156 164.691406 266.671875 166.335938 265.605469 167.929688 C 264.539062 169.527344 263.394531 171.066406 262.175781 172.546875 C 260.960938 174.03125 259.671875 175.449219 258.3125 176.808594 C 256.953125 178.164062 255.535156 179.449219 254.046875 180.667969 C 252.5625 181.886719 251.023438 183.027344 249.425781 184.09375 C 247.828125 185.160156 246.183594 186.144531 244.488281 187.046875 C 242.796875 187.953125 241.0625 188.773438 239.289062 189.507812 C 237.511719 190.242188 235.707031 190.886719 233.871094 191.441406 C 232.03125 192 230.171875 192.464844 228.285156 192.839844 C 226.402344 193.214844 224.503906 193.496094 222.59375 193.683594 C 220.683594 193.871094 218.765625 193.964844 216.847656 193.964844 C 214.925781 193.964844 213.011719 193.871094 211.097656 193.683594 C 209.1875 193.496094 207.289062 193.214844 205.40625 192.839844 C 203.523438 192.464844 201.660156 192 199.824219 191.441406 C 197.984375 190.886719 196.179688 190.242188 194.40625 189.507812 C 192.628906 188.773438 190.894531 187.953125 189.203125 187.046875 C 187.507812 186.144531 185.863281 185.160156 184.265625 184.09375 C 182.667969 183.027344 181.128906 181.886719 179.644531 180.667969 C 178.160156 179.449219 176.738281 178.164062 175.378906 176.808594 C 174.023438 175.449219 172.734375 174.03125 171.515625 172.546875 C 170.296875 171.066406 169.152344 169.527344 168.085938 167.929688 C 167.019531 166.335938 166.035156 164.691406 165.128906 163 C 164.222656 161.308594 163.402344 159.574219 162.667969 157.800781 C 161.933594 156.03125 161.285156 154.226562 160.730469 152.390625 C 160.171875 150.554688 159.707031 148.695312 159.332031 146.8125 C 158.957031 144.929688 158.675781 143.035156 158.488281 141.125 C 158.296875 139.21875 158.203125 137.304688 158.203125 135.382812 C 158.203125 133.464844 158.296875 131.550781 158.488281 129.640625 C 158.675781 127.734375 158.957031 125.835938 159.332031 123.957031 C 159.707031 122.074219 160.171875 120.214844 160.730469 118.378906 C 161.285156 116.542969 161.933594 114.738281 162.667969 112.964844 C 163.402344 111.195312 164.222656 109.460938 165.128906 107.769531 C 166.035156 106.078125 167.019531 104.433594 168.085938 102.839844 C 169.152344 101.242188 170.296875 99.703125 171.515625 98.222656 C 172.734375 96.738281 174.023438 95.316406 175.378906 93.960938 C 176.738281 92.605469 178.160156 91.316406 179.644531 90.101562 C 181.128906 88.882812 182.667969 87.742188 184.265625 86.675781 C 185.863281 85.609375 187.507812 84.625 189.203125 83.722656 C 190.894531 82.816406 192.628906 81.996094 194.40625 81.261719 C 196.179688 80.527344 197.984375 79.882812 199.824219 79.328125 C 201.660156 78.769531 203.523438 78.304688 205.40625 77.929688 C 207.289062 77.554688 209.1875 77.273438 211.097656 77.085938 C 213.011719 76.898438 214.925781 76.804688 216.847656 76.804688 C 218.765625 76.804688 220.683594 76.898438 222.59375 77.085938 C 224.503906 77.273438 226.402344 77.554688 228.285156 77.929688 C 230.171875 78.304688 232.03125 78.769531 233.871094 79.328125 C 235.707031 79.882812 237.511719 80.527344 239.289062 81.261719 C 241.0625 81.996094 242.796875 82.816406 244.488281 83.722656 C 246.183594 84.625 247.828125 85.609375 249.425781 86.675781 C 251.023438 87.742188 252.5625 88.882812 254.046875 90.101562 C 255.535156 91.316406 256.953125 92.605469 258.3125 93.960938 C 259.671875 95.316406 260.960938 96.738281 262.175781 98.222656 C 263.394531 99.703125 264.539062 101.242188 265.605469 102.839844 C 266.671875 104.433594 267.660156 106.078125 268.5625 107.769531 C 269.46875 109.460938 270.289062 111.195312 271.023438 112.964844 C 271.761719 114.738281 272.40625 116.542969 272.964844 118.378906 C 273.519531 120.214844 273.988281 122.074219 274.363281 123.957031 C 274.738281 125.835938 275.019531 127.734375 275.207031 129.640625 C 275.394531 131.550781 275.488281 133.464844 275.488281 135.382812 Z M 275.488281 135.382812 " fill-opacity="1" fill-rule="nonzero"/><path fill="#ffc008" d="M 260.828125 135.382812 C 260.828125 136.824219 260.757812 138.257812 260.617188 139.691406 C 260.476562 141.121094 260.265625 142.542969 259.984375 143.957031 C 259.703125 145.367188 259.351562 146.761719 258.933594 148.136719 C 258.515625 149.515625 258.03125 150.867188 257.480469 152.199219 C 256.929688 153.527344 256.3125 154.828125 255.636719 156.09375 C 254.957031 157.363281 254.214844 158.597656 253.414062 159.792969 C 252.617188 160.988281 251.757812 162.144531 250.84375 163.257812 C 249.929688 164.371094 248.964844 165.433594 247.945312 166.453125 C 246.925781 167.46875 245.863281 168.433594 244.75 169.347656 C 243.632812 170.261719 242.480469 171.117188 241.28125 171.914062 C 240.082031 172.714844 238.851562 173.453125 237.578125 174.132812 C 236.308594 174.808594 235.007812 175.425781 233.675781 175.976562 C 232.347656 176.527344 230.992188 177.011719 229.613281 177.429688 C 228.234375 177.847656 226.839844 178.195312 225.425781 178.476562 C 224.015625 178.757812 222.589844 178.96875 221.15625 179.109375 C 219.722656 179.25 218.285156 179.320312 216.847656 179.320312 C 215.40625 179.320312 213.96875 179.25 212.535156 179.109375 C 211.101562 178.96875 209.679688 178.757812 208.265625 178.476562 C 206.851562 178.195312 205.457031 177.847656 204.078125 177.429688 C 202.699219 177.011719 201.347656 176.527344 200.015625 175.976562 C 198.683594 175.425781 197.382812 174.808594 196.113281 174.132812 C 194.84375 173.453125 193.609375 172.714844 192.410156 171.914062 C 191.214844 171.117188 190.058594 170.261719 188.945312 169.347656 C 187.832031 168.433594 186.765625 167.46875 185.746094 166.453125 C 184.726562 165.433594 183.761719 164.371094 182.847656 163.257812 C 181.933594 162.144531 181.078125 160.988281 180.277344 159.792969 C 179.476562 158.597656 178.738281 157.363281 178.058594 156.09375 C 177.378906 154.828125 176.765625 153.527344 176.210938 152.199219 C 175.660156 150.867188 175.175781 149.515625 174.757812 148.136719 C 174.339844 146.761719 173.992188 145.367188 173.710938 143.957031 C 173.429688 142.542969 173.21875 141.121094 173.078125 139.691406 C 172.933594 138.257812 172.863281 136.824219 172.863281 135.382812 C 172.863281 133.945312 172.933594 132.511719 173.078125 131.078125 C 173.21875 129.644531 173.429688 128.222656 173.710938 126.8125 C 173.992188 125.402344 174.339844 124.007812 174.757812 122.628906 C 175.175781 121.253906 175.660156 119.902344 176.210938 118.570312 C 176.765625 117.242188 177.378906 115.941406 178.058594 114.671875 C 178.738281 113.40625 179.476562 112.171875 180.277344 110.976562 C 181.078125 109.777344 181.933594 108.625 182.847656 107.511719 C 183.761719 106.398438 184.726562 105.335938 185.746094 104.316406 C 186.765625 103.300781 187.832031 102.335938 188.945312 101.421875 C 190.058594 100.507812 191.214844 99.652344 192.410156 98.851562 C 193.609375 98.054688 194.84375 97.316406 196.113281 96.636719 C 197.382812 95.957031 198.683594 95.34375 200.015625 94.792969 C 201.347656 94.242188 202.699219 93.757812 204.078125 93.339844 C 205.457031 92.921875 206.851562 92.574219 208.265625 92.292969 C 209.679688 92.011719 211.101562 91.800781 212.535156 91.660156 C 213.96875 91.519531 215.40625 91.449219 216.847656 91.449219 C 218.285156 91.449219 219.722656 91.519531 221.15625 91.660156 C 222.589844 91.800781 224.015625 92.011719 225.425781 92.292969 C 226.839844 92.574219 228.234375 92.921875 229.613281 93.339844 C 230.992188 93.757812 232.347656 94.242188 233.675781 94.792969 C 235.007812 95.34375 236.308594 95.957031 237.578125 96.636719 C 238.851562 97.316406 240.082031 98.054688 241.28125 98.851562 C 242.480469 99.652344 243.632812 100.507812 244.75 101.421875 C 245.863281 102.335938 246.925781 103.300781 247.945312 104.316406 C 248.964844 105.335938 249.929688 106.398438 250.84375 107.511719 C 251.757812 108.625 252.617188 109.777344 253.414062 110.976562 C 254.214844 112.171875 254.957031 113.40625 255.636719 114.671875 C 256.3125 115.941406 256.929688 117.242188 257.480469 118.570312 C 258.03125 119.902344 258.515625 121.253906 258.933594 122.628906 C 259.351562 124.007812 259.703125 125.402344 259.984375 126.8125 C 260.265625 128.222656 260.476562 129.644531 260.617188 131.078125 C 260.757812 132.511719 260.828125 133.945312 260.828125 135.382812 Z M 260.828125 135.382812 " fill-opacity="1" fill-rule="nonzero"/><path fill="#fbde08" d="M 247.4375 103.847656 L 197.789062 174.976562 C 191.75 172.082031 186.648438 168.015625 182.492188 162.769531 L 230.675781 93.695312 C 237.039062 95.804688 242.625 99.1875 247.4375 103.847656 Z M 247.4375 103.847656 " fill-opacity="1" fill-rule="nonzero"/><path fill="#fff177" d="M 197.789062 174.976562 L 189.332031 187.128906 C 183.496094 184.035156 178.332031 180.0625 173.84375 175.21875 L 182.492188 162.769531 C 186.648438 168.015625 191.75 172.082031 197.789062 174.976562 Z M 197.789062 174.976562 " fill-opacity="1" fill-rule="nonzero"/><path fill="#fff177" d="M 255.941406 91.691406 L 247.4375 103.847656 C 242.625 99.1875 237.039062 95.804688 230.675781 93.695312 L 239.375 81.246094 C 245.492188 83.789062 251.011719 87.273438 255.941406 91.691406 Z M 255.941406 91.691406 " fill-opacity="1" fill-rule="nonzero"/><path fill="#fbde08" d="M 256.527344 116.445312 L 212.789062 179.125 C 209.242188 178.808594 205.789062 178.0625 202.429688 176.878906 L 250.808594 107.558594 C 253.097656 110.273438 255.003906 113.234375 256.527344 116.445312 Z M 256.527344 116.445312 " fill-opacity="1" fill-rule="nonzero"/><path fill="#fff177" d="M 202.429688 176.878906 C 205.789062 178.0625 209.242188 178.808594 212.789062 179.125 L 203.503906 192.453125 C 200.171875 191.671875 196.929688 190.617188 193.78125 189.277344 Z M 202.429688 176.878906 " fill-opacity="1" fill-rule="nonzero"/><path fill="#fff177" d="M 265.8125 103.164062 L 256.527344 116.445312 C 255.003906 113.234375 253.097656 110.273438 250.808594 107.558594 L 259.460938 95.160156 C 261.851562 97.613281 263.96875 100.28125 265.8125 103.164062 Z M 265.8125 103.164062 " fill-opacity="1" fill-rule="nonzero"/><path fill="#bc0404" d="M 119.109375 316.007812 L 94.675781 316.007812 C 94.355469 316.007812 94.035156 315.976562 93.722656 315.914062 C 93.40625 315.851562 93.101562 315.757812 92.804688 315.636719 C 92.507812 315.515625 92.226562 315.363281 91.960938 315.1875 C 91.691406 315.007812 91.445312 314.804688 91.21875 314.578125 C 90.992188 314.351562 90.789062 314.105469 90.613281 313.839844 C 90.433594 313.574219 90.28125 313.289062 90.160156 312.996094 C 90.035156 312.699219 89.945312 312.394531 89.882812 312.078125 C 89.820312 311.765625 89.789062 311.445312 89.789062 311.125 C 89.789062 310.804688 89.820312 310.488281 89.882812 310.175781 C 89.945312 309.859375 90.035156 309.554688 90.160156 309.257812 C 90.28125 308.960938 90.433594 308.679688 90.613281 308.414062 C 90.789062 308.148438 90.992188 307.902344 91.21875 307.675781 C 91.445312 307.449219 91.691406 307.246094 91.960938 307.066406 C 92.226562 306.890625 92.507812 306.738281 92.804688 306.617188 C 93.101562 306.492188 93.40625 306.402344 93.722656 306.339844 C 94.035156 306.277344 94.355469 306.246094 94.675781 306.246094 L 119.109375 306.246094 C 119.429688 306.246094 119.746094 306.277344 120.0625 306.339844 C 120.378906 306.402344 120.683594 306.492188 120.980469 306.617188 C 121.277344 306.738281 121.558594 306.890625 121.824219 307.066406 C 122.089844 307.246094 122.335938 307.449219 122.566406 307.675781 C 122.792969 307.902344 122.992188 308.148438 123.171875 308.414062 C 123.351562 308.679688 123.5 308.960938 123.625 309.257812 C 123.746094 309.554688 123.839844 309.859375 123.902344 310.175781 C 123.964844 310.488281 123.996094 310.804688 123.996094 311.125 C 123.996094 311.445312 123.964844 311.765625 123.902344 312.078125 C 123.839844 312.394531 123.746094 312.699219 123.625 312.996094 C 123.5 313.289062 123.351562 313.574219 123.171875 313.839844 C 122.992188 314.105469 122.792969 314.351562 122.566406 314.578125 C 122.335938 314.804688 122.089844 315.007812 121.824219 315.1875 C 121.558594 315.363281 121.277344 315.515625 120.980469 315.636719 C 120.683594 315.757812 120.378906 315.851562 120.0625 315.914062 C 119.746094 315.976562 119.429688 316.007812 119.109375 316.007812 Z M 119.109375 316.007812 " fill-opacity="1" fill-rule="nonzero"/><path fill="#bc0404" d="M 236.394531 320.890625 L 221.734375 320.890625 C 221.414062 320.890625 221.09375 320.859375 220.78125 320.796875 C 220.464844 320.734375 220.160156 320.640625 219.863281 320.519531 C 219.566406 320.394531 219.285156 320.246094 219.019531 320.066406 C 218.75 319.890625 218.503906 319.6875 218.277344 319.460938 C 218.050781 319.234375 217.847656 318.988281 217.671875 318.71875 C 217.492188 318.453125 217.339844 318.171875 217.21875 317.875 C 217.09375 317.582031 217.003906 317.273438 216.941406 316.960938 C 216.878906 316.644531 216.847656 316.328125 216.847656 316.007812 C 216.847656 315.6875 216.878906 315.371094 216.941406 315.054688 C 217.003906 314.742188 217.09375 314.4375 217.21875 314.140625 C 217.339844 313.84375 217.492188 313.5625 217.671875 313.296875 C 217.847656 313.03125 218.050781 312.78125 218.277344 312.554688 C 218.503906 312.328125 218.75 312.128906 219.019531 311.949219 C 219.285156 311.769531 219.566406 311.621094 219.863281 311.5 C 220.160156 311.375 220.464844 311.28125 220.78125 311.21875 C 221.09375 311.15625 221.414062 311.125 221.734375 311.125 L 236.394531 311.125 C 236.714844 311.125 237.03125 311.15625 237.347656 311.21875 C 237.660156 311.28125 237.96875 311.375 238.265625 311.5 C 238.558594 311.621094 238.84375 311.769531 239.109375 311.949219 C 239.375 312.128906 239.621094 312.328125 239.847656 312.554688 C 240.078125 312.78125 240.277344 313.03125 240.457031 313.296875 C 240.636719 313.5625 240.785156 313.84375 240.910156 314.140625 C 241.03125 314.4375 241.125 314.742188 241.1875 315.054688 C 241.25 315.371094 241.28125 315.6875 241.28125 316.007812 C 241.28125 316.328125 241.25 316.644531 241.1875 316.960938 C 241.125 317.273438 241.03125 317.582031 240.910156 317.875 C 240.785156 318.171875 240.636719 318.453125 240.457031 318.71875 C 240.277344 318.988281 240.078125 319.234375 239.847656 319.460938 C 239.621094 319.6875 239.375 319.890625 239.109375 320.066406 C 238.84375 320.246094 238.558594 320.394531 238.265625 320.519531 C 237.96875 320.640625 237.660156 320.734375 237.347656 320.796875 C 237.03125 320.859375 236.714844 320.890625 236.394531 320.890625 Z M 236.394531 320.890625 " fill-opacity="1" fill-rule="nonzero"/><path fill="#bc0404" d="M 295.035156 267.191406 L 265.714844 267.191406 C 265.394531 267.191406 265.078125 267.160156 264.761719 267.097656 C 264.445312 267.035156 264.140625 266.941406 263.84375 266.820312 C 263.546875 266.695312 263.265625 266.546875 263 266.367188 C 262.734375 266.191406 262.488281 265.988281 262.257812 265.761719 C 262.03125 265.535156 261.828125 265.289062 261.652344 265.023438 C 261.472656 264.753906 261.324219 264.472656 261.199219 264.175781 C 261.078125 263.882812 260.984375 263.574219 260.921875 263.261719 C 260.859375 262.949219 260.828125 262.628906 260.828125 262.308594 C 260.828125 261.988281 260.859375 261.671875 260.921875 261.355469 C 260.984375 261.042969 261.078125 260.738281 261.199219 260.441406 C 261.324219 260.144531 261.472656 259.863281 261.652344 259.597656 C 261.828125 259.332031 262.03125 259.085938 262.257812 258.859375 C 262.488281 258.632812 262.734375 258.429688 263 258.25 C 263.265625 258.074219 263.546875 257.921875 263.84375 257.800781 C 264.140625 257.675781 264.445312 257.585938 264.761719 257.523438 C 265.078125 257.457031 265.394531 257.425781 265.714844 257.425781 L 295.035156 257.425781 C 295.355469 257.425781 295.675781 257.457031 295.988281 257.519531 C 296.304688 257.585938 296.609375 257.675781 296.90625 257.800781 C 297.203125 257.921875 297.484375 258.074219 297.75 258.25 C 298.019531 258.429688 298.265625 258.632812 298.492188 258.859375 C 298.71875 259.085938 298.921875 259.332031 299.097656 259.597656 C 299.277344 259.863281 299.429688 260.144531 299.550781 260.441406 C 299.675781 260.738281 299.765625 261.042969 299.828125 261.355469 C 299.890625 261.671875 299.921875 261.988281 299.921875 262.308594 C 299.921875 262.628906 299.890625 262.949219 299.828125 263.261719 C 299.765625 263.574219 299.675781 263.882812 299.550781 264.175781 C 299.429688 264.472656 299.277344 264.753906 299.097656 265.023438 C 298.921875 265.289062 298.71875 265.535156 298.492188 265.761719 C 298.265625 265.988281 298.019531 266.191406 297.75 266.367188 C 297.484375 266.546875 297.203125 266.695312 296.90625 266.820312 C 296.609375 266.941406 296.304688 267.035156 295.988281 267.097656 C 295.675781 267.160156 295.355469 267.191406 295.035156 267.191406 Z M 295.035156 267.191406 " fill-opacity="1" fill-rule="nonzero"/><path fill="#bc0404" d="M 290.148438 67.039062 L 260.828125 67.039062 C 260.507812 67.039062 260.191406 67.007812 259.875 66.945312 C 259.558594 66.882812 259.253906 66.792969 258.957031 66.667969 C 258.660156 66.546875 258.378906 66.394531 258.113281 66.21875 C 257.847656 66.039062 257.597656 65.835938 257.371094 65.609375 C 257.144531 65.382812 256.941406 65.136719 256.765625 64.871094 C 256.585938 64.605469 256.4375 64.324219 256.3125 64.027344 C 256.191406 63.730469 256.097656 63.425781 256.035156 63.109375 C 255.972656 62.796875 255.941406 62.480469 255.941406 62.160156 C 255.941406 61.839844 255.972656 61.519531 256.035156 61.207031 C 256.097656 60.890625 256.191406 60.585938 256.3125 60.289062 C 256.4375 59.996094 256.585938 59.714844 256.765625 59.445312 C 256.941406 59.179688 257.144531 58.933594 257.371094 58.707031 C 257.597656 58.480469 257.847656 58.277344 258.113281 58.097656 C 258.378906 57.921875 258.660156 57.769531 258.957031 57.648438 C 259.253906 57.527344 259.558594 57.433594 259.875 57.371094 C 260.191406 57.308594 260.507812 57.277344 260.828125 57.277344 L 290.148438 57.277344 C 290.46875 57.277344 290.789062 57.308594 291.101562 57.371094 C 291.417969 57.433594 291.722656 57.527344 292.019531 57.648438 C 292.316406 57.769531 292.597656 57.921875 292.863281 58.097656 C 293.132812 58.277344 293.378906 58.480469 293.605469 58.707031 C 293.832031 58.933594 294.035156 59.179688 294.210938 59.445312 C 294.390625 59.714844 294.542969 59.996094 294.664062 60.289062 C 294.785156 60.585938 294.878906 60.890625 294.941406 61.207031 C 295.003906 61.519531 295.035156 61.839844 295.035156 62.160156 C 295.035156 62.480469 295.003906 62.796875 294.941406 63.109375 C 294.878906 63.425781 294.785156 63.730469 294.664062 64.027344 C 294.542969 64.324219 294.390625 64.605469 294.210938 64.871094 C 294.035156 65.136719 293.832031 65.382812 293.605469 65.609375 C 293.378906 65.835938 293.132812 66.039062 292.863281 66.21875 C 292.597656 66.394531 292.316406 66.546875 292.019531 66.667969 C 291.722656 66.792969 291.417969 66.882812 291.101562 66.945312 C 290.789062 67.007812 290.46875 67.039062 290.148438 67.039062 Z M 290.148438 67.039062 " fill-opacity="1" fill-rule="nonzero"/><g clip-path="url(#40475a4edb)"><path fill="#bc0404" d="M 75.128906 291.601562 L 65.355469 291.601562 C 65.03125 291.601562 64.714844 291.570312 64.398438 291.507812 C 64.085938 291.445312 63.78125 291.351562 63.484375 291.226562 C 63.1875 291.105469 62.90625 290.957031 62.636719 290.777344 C 62.371094 290.597656 62.125 290.398438 61.898438 290.171875 C 61.671875 289.941406 61.46875 289.695312 61.289062 289.429688 C 61.113281 289.164062 60.960938 288.882812 60.839844 288.585938 C 60.714844 288.289062 60.625 287.984375 60.5625 287.671875 C 60.496094 287.355469 60.464844 287.039062 60.464844 286.71875 C 60.464844 286.398438 60.496094 286.078125 60.5625 285.765625 C 60.625 285.453125 60.714844 285.144531 60.839844 284.851562 C 60.960938 284.554688 61.113281 284.273438 61.289062 284.007812 C 61.46875 283.738281 61.671875 283.492188 61.898438 283.265625 C 62.125 283.039062 62.371094 282.835938 62.636719 282.660156 C 62.90625 282.480469 63.1875 282.332031 63.484375 282.207031 C 63.78125 282.085938 64.085938 281.992188 64.398438 281.929688 C 64.714844 281.867188 65.03125 281.835938 65.355469 281.835938 L 75.128906 281.835938 C 75.449219 281.835938 75.765625 281.867188 76.082031 281.929688 C 76.394531 281.992188 76.699219 282.085938 76.996094 282.207031 C 77.292969 282.332031 77.574219 282.480469 77.84375 282.660156 C 78.109375 282.835938 78.355469 283.039062 78.582031 283.265625 C 78.808594 283.492188 79.011719 283.738281 79.191406 284.007812 C 79.367188 284.273438 79.519531 284.554688 79.640625 284.851562 C 79.765625 285.144531 79.859375 285.453125 79.921875 285.765625 C 79.984375 286.078125 80.015625 286.398438 80.015625 286.71875 C 80.015625 287.039062 79.984375 287.355469 79.921875 287.671875 C 79.859375 287.984375 79.765625 288.289062 79.640625 288.585938 C 79.519531 288.882812 79.367188 289.164062 79.191406 289.429688 C 79.011719 289.695312 78.808594 289.941406 78.582031 290.171875 C 78.355469 290.398438 78.109375 290.597656 77.84375 290.777344 C 77.574219 290.957031 77.292969 291.105469 76.996094 291.226562 C 76.699219 291.351562 76.394531 291.445312 76.082031 291.507812 C 75.765625 291.570312 75.449219 291.601562 75.128906 291.601562 Z M 75.128906 291.601562 " fill-opacity="1" fill-rule="nonzero"/></g><path fill="#bc0404" d="M 309.695312 135.382812 L 299.921875 135.382812 C 299.601562 135.382812 299.285156 135.351562 298.96875 135.289062 C 298.65625 135.226562 298.347656 135.136719 298.054688 135.011719 C 297.757812 134.890625 297.476562 134.738281 297.207031 134.5625 C 296.941406 134.382812 296.695312 134.179688 296.46875 133.953125 C 296.242188 133.726562 296.039062 133.480469 295.859375 133.214844 C 295.679688 132.949219 295.53125 132.667969 295.410156 132.371094 C 295.285156 132.074219 295.191406 131.769531 295.128906 131.457031 C 295.066406 131.140625 295.035156 130.824219 295.035156 130.503906 C 295.035156 130.183594 295.066406 129.863281 295.128906 129.550781 C 295.191406 129.234375 295.285156 128.929688 295.410156 128.632812 C 295.53125 128.339844 295.679688 128.058594 295.859375 127.789062 C 296.039062 127.523438 296.242188 127.277344 296.46875 127.050781 C 296.695312 126.824219 296.941406 126.621094 297.207031 126.445312 C 297.476562 126.265625 297.757812 126.117188 298.054688 125.992188 C 298.347656 125.871094 298.65625 125.777344 298.96875 125.714844 C 299.285156 125.652344 299.601562 125.621094 299.921875 125.621094 L 309.695312 125.621094 C 310.019531 125.621094 310.335938 125.652344 310.648438 125.714844 C 310.964844 125.777344 311.269531 125.871094 311.566406 125.992188 C 311.863281 126.117188 312.144531 126.265625 312.410156 126.445312 C 312.679688 126.621094 312.925781 126.824219 313.152344 127.050781 C 313.378906 127.277344 313.582031 127.523438 313.761719 127.789062 C 313.9375 128.058594 314.089844 128.339844 314.210938 128.632812 C 314.335938 128.929688 314.425781 129.234375 314.488281 129.550781 C 314.550781 129.863281 314.582031 130.183594 314.582031 130.503906 C 314.582031 130.824219 314.550781 131.140625 314.488281 131.457031 C 314.425781 131.769531 314.335938 132.074219 314.210938 132.371094 C 314.089844 132.667969 313.9375 132.949219 313.761719 133.214844 C 313.582031 133.480469 313.378906 133.726562 313.152344 133.953125 C 312.925781 134.179688 312.679688 134.382812 312.410156 134.5625 C 312.144531 134.738281 311.863281 134.890625 311.566406 135.011719 C 311.269531 135.136719 310.964844 135.226562 310.648438 135.289062 C 310.335938 135.351562 310.019531 135.382812 309.695312 135.382812 Z M 309.695312 135.382812 " fill-opacity="1" fill-rule="nonzero"/><path fill="#ff8b00" d="M 236.394531 150.03125 C 236.394531 149.390625 236.363281 148.753906 236.300781 148.117188 C 236.238281 147.480469 236.144531 146.847656 236.019531 146.21875 C 235.894531 145.59375 235.738281 144.972656 235.550781 144.359375 C 235.367188 143.75 235.152344 143.148438 234.90625 142.558594 C 234.660156 141.964844 234.386719 141.390625 234.085938 140.824219 C 233.785156 140.261719 233.457031 139.710938 233.097656 139.179688 C 232.742188 138.648438 232.363281 138.136719 231.957031 137.640625 C 231.550781 137.148438 231.121094 136.675781 230.667969 136.222656 C 230.214844 135.769531 229.742188 135.339844 229.246094 134.933594 C 228.753906 134.53125 228.238281 134.148438 227.707031 133.792969 C 227.175781 133.4375 226.625 133.109375 226.0625 132.808594 C 225.496094 132.507812 224.917969 132.234375 224.328125 131.988281 C 223.734375 131.746094 223.132812 131.527344 222.519531 131.34375 C 221.90625 131.15625 221.289062 131.003906 220.660156 130.878906 C 220.03125 130.753906 219.398438 130.660156 218.761719 130.597656 C 218.125 130.535156 217.488281 130.503906 216.847656 130.503906 C 216.417969 130.503906 215.996094 130.472656 215.570312 130.417969 C 215.148438 130.363281 214.730469 130.277344 214.316406 130.167969 C 213.90625 130.058594 213.503906 129.917969 213.109375 129.757812 C 212.714844 129.59375 212.332031 129.402344 211.960938 129.191406 C 211.59375 128.976562 211.238281 128.738281 210.898438 128.480469 C 210.5625 128.21875 210.242188 127.941406 209.9375 127.636719 C 209.636719 127.335938 209.355469 127.015625 209.097656 126.675781 C 208.835938 126.339844 208.601562 125.984375 208.386719 125.613281 C 208.175781 125.246094 207.988281 124.863281 207.824219 124.46875 C 207.660156 124.074219 207.523438 123.671875 207.414062 123.261719 C 207.304688 122.847656 207.21875 122.429688 207.164062 122.007812 C 207.109375 121.585938 207.082031 121.160156 207.082031 120.734375 C 207.082031 120.308594 207.109375 119.882812 207.167969 119.460938 C 207.222656 119.035156 207.304688 118.617188 207.417969 118.207031 C 207.527344 117.796875 207.664062 117.390625 207.828125 117 C 207.992188 116.605469 208.179688 116.222656 208.394531 115.851562 C 208.609375 115.484375 208.84375 115.128906 209.105469 114.792969 C 209.363281 114.453125 209.644531 114.132812 209.949219 113.832031 C 210.25 113.53125 210.570312 113.25 210.910156 112.992188 C 211.246094 112.730469 211.601562 112.496094 211.972656 112.28125 C 212.34375 112.070312 212.722656 111.882812 213.117188 111.71875 C 213.511719 111.554688 213.917969 111.417969 214.328125 111.308594 C 214.742188 111.199219 215.160156 111.113281 215.582031 111.058594 C 216.007812 111.003906 216.429688 110.976562 216.859375 110.976562 C 217.285156 110.976562 217.710938 111.003906 218.132812 111.058594 C 218.558594 111.117188 218.976562 111.199219 219.386719 111.308594 C 219.800781 111.417969 220.203125 111.554688 220.597656 111.71875 C 220.992188 111.882812 221.375 112.070312 221.742188 112.285156 C 222.113281 112.496094 222.46875 112.734375 222.804688 112.992188 C 223.144531 113.253906 223.464844 113.535156 223.765625 113.835938 C 224.070312 114.136719 224.351562 114.457031 224.609375 114.796875 C 224.871094 115.132812 225.105469 115.488281 225.320312 115.859375 C 225.480469 116.132812 225.667969 116.390625 225.878906 116.628906 C 226.09375 116.867188 226.324219 117.082031 226.582031 117.277344 C 226.835938 117.46875 227.105469 117.636719 227.394531 117.777344 C 227.679688 117.914062 227.976562 118.027344 228.285156 118.109375 C 228.597656 118.1875 228.910156 118.238281 229.230469 118.261719 C 229.546875 118.28125 229.863281 118.269531 230.183594 118.226562 C 230.5 118.183594 230.808594 118.113281 231.109375 118.007812 C 231.414062 117.90625 231.703125 117.777344 231.980469 117.617188 C 232.257812 117.457031 232.515625 117.269531 232.753906 117.0625 C 232.996094 116.851562 233.214844 116.621094 233.40625 116.367188 C 233.601562 116.113281 233.769531 115.84375 233.914062 115.558594 C 234.054688 115.273438 234.167969 114.976562 234.25 114.667969 C 234.335938 114.359375 234.386719 114.046875 234.410156 113.726562 C 234.433594 113.410156 234.425781 113.09375 234.382812 112.777344 C 234.34375 112.457031 234.273438 112.148438 234.171875 111.847656 C 234.070312 111.542969 233.941406 111.253906 233.785156 110.976562 C 233.132812 109.855469 232.375 108.808594 231.515625 107.835938 C 230.65625 106.867188 229.710938 105.988281 228.675781 105.203125 C 227.640625 104.421875 226.539062 103.746094 225.371094 103.183594 C 224.203125 102.617188 222.988281 102.171875 221.734375 101.847656 L 221.734375 96.332031 C 221.734375 96.011719 221.703125 95.691406 221.640625 95.378906 C 221.578125 95.0625 221.484375 94.757812 221.359375 94.460938 C 221.238281 94.167969 221.089844 93.886719 220.910156 93.617188 C 220.730469 93.351562 220.527344 93.105469 220.300781 92.878906 C 220.074219 92.652344 219.828125 92.449219 219.5625 92.273438 C 219.292969 92.09375 219.011719 91.941406 218.714844 91.820312 C 218.421875 91.699219 218.113281 91.605469 217.800781 91.542969 C 217.484375 91.480469 217.167969 91.449219 216.847656 91.449219 C 216.527344 91.449219 216.207031 91.480469 215.894531 91.542969 C 215.578125 91.605469 215.273438 91.699219 214.976562 91.820312 C 214.679688 91.941406 214.398438 92.09375 214.132812 92.273438 C 213.863281 92.449219 213.617188 92.652344 213.390625 92.878906 C 213.164062 93.105469 212.960938 93.351562 212.78125 93.617188 C 212.605469 93.886719 212.453125 94.167969 212.332031 94.460938 C 212.207031 94.757812 212.117188 95.0625 212.054688 95.378906 C 211.992188 95.691406 211.960938 96.011719 211.960938 96.332031 L 211.960938 101.90625 C 210.820312 102.199219 209.714844 102.59375 208.644531 103.085938 C 207.574219 103.578125 206.558594 104.164062 205.59375 104.84375 C 204.628906 105.519531 203.734375 106.277344 202.910156 107.117188 C 202.085938 107.957031 201.339844 108.863281 200.679688 109.835938 C 200.015625 110.8125 199.449219 111.835938 198.972656 112.914062 C 198.496094 113.988281 198.125 115.101562 197.847656 116.246094 C 197.574219 117.390625 197.40625 118.550781 197.34375 119.722656 C 197.277344 120.898438 197.320312 122.070312 197.46875 123.238281 C 197.617188 124.40625 197.871094 125.550781 198.226562 126.671875 C 198.582031 127.792969 199.039062 128.875 199.589844 129.914062 C 200.144531 130.953125 200.785156 131.9375 201.515625 132.859375 C 202.246094 133.78125 203.050781 134.632812 203.9375 135.410156 C 204.820312 136.1875 205.769531 136.878906 206.777344 137.484375 C 207.789062 138.089844 208.84375 138.601562 209.949219 139.015625 C 211.050781 139.429688 212.179688 139.742188 213.339844 139.953125 C 214.5 140.164062 215.667969 140.269531 216.847656 140.265625 C 217.273438 140.265625 217.699219 140.292969 218.121094 140.351562 C 218.546875 140.40625 218.960938 140.492188 219.375 140.601562 C 219.789062 140.710938 220.191406 140.847656 220.585938 141.011719 C 220.980469 141.175781 221.363281 141.363281 221.730469 141.578125 C 222.101562 141.792969 222.453125 142.027344 222.792969 142.289062 C 223.132812 142.546875 223.453125 142.828125 223.753906 143.132812 C 224.054688 143.433594 224.335938 143.753906 224.59375 144.09375 C 224.855469 144.429688 225.089844 144.785156 225.304688 145.152344 C 225.519531 145.523438 225.707031 145.90625 225.871094 146.300781 C 226.03125 146.695312 226.167969 147.097656 226.277344 147.507812 C 226.390625 147.921875 226.472656 148.339844 226.527344 148.761719 C 226.582031 149.183594 226.609375 149.609375 226.609375 150.035156 C 226.609375 150.460938 226.582031 150.886719 226.527344 151.308594 C 226.46875 151.734375 226.386719 152.148438 226.277344 152.5625 C 226.164062 152.972656 226.027344 153.375 225.863281 153.769531 C 225.699219 154.164062 225.511719 154.546875 225.296875 154.914062 C 225.085938 155.285156 224.847656 155.636719 224.589844 155.976562 C 224.328125 156.316406 224.046875 156.636719 223.746094 156.9375 C 223.441406 157.238281 223.121094 157.519531 222.785156 157.777344 C 222.445312 158.039062 222.089844 158.273438 221.71875 158.488281 C 221.351562 158.699219 220.96875 158.886719 220.574219 159.050781 C 220.179688 159.214844 219.777344 159.351562 219.363281 159.460938 C 218.953125 159.570312 218.535156 159.65625 218.109375 159.710938 C 217.6875 159.765625 217.261719 159.792969 216.835938 159.792969 C 216.40625 159.792969 215.980469 159.765625 215.558594 159.710938 C 215.136719 159.652344 214.71875 159.570312 214.304688 159.460938 C 213.894531 159.347656 213.488281 159.210938 213.09375 159.050781 C 212.699219 158.886719 212.320312 158.699219 211.949219 158.484375 C 211.578125 158.269531 211.226562 158.035156 210.886719 157.773438 C 210.546875 157.515625 210.226562 157.234375 209.925781 156.933594 C 209.625 156.632812 209.34375 156.3125 209.082031 155.972656 C 208.824219 155.632812 208.585938 155.28125 208.371094 154.910156 C 208.214844 154.632812 208.027344 154.371094 207.816406 154.125 C 207.605469 153.882812 207.375 153.664062 207.117188 153.464844 C 206.863281 153.269531 206.59375 153.097656 206.304688 152.953125 C 206.015625 152.8125 205.714844 152.695312 205.40625 152.613281 C 205.09375 152.527344 204.777344 152.476562 204.457031 152.453125 C 204.132812 152.429688 203.8125 152.441406 203.496094 152.484375 C 203.175781 152.523438 202.863281 152.597656 202.558594 152.699219 C 202.25 152.804688 201.960938 152.933594 201.679688 153.097656 C 201.402344 153.257812 201.140625 153.445312 200.898438 153.65625 C 200.65625 153.867188 200.4375 154.101562 200.242188 154.359375 C 200.046875 154.613281 199.878906 154.886719 199.734375 155.175781 C 199.59375 155.464844 199.480469 155.765625 199.398438 156.078125 C 199.316406 156.386719 199.265625 156.703125 199.246094 157.023438 C 199.226562 157.347656 199.238281 157.667969 199.28125 157.984375 C 199.324219 158.304688 199.402344 158.617188 199.507812 158.921875 C 199.613281 159.222656 199.746094 159.515625 199.910156 159.792969 C 200.5625 160.914062 201.316406 161.960938 202.175781 162.933594 C 203.035156 163.902344 203.984375 164.78125 205.019531 165.5625 C 206.050781 166.347656 207.152344 167.023438 208.320312 167.585938 C 209.492188 168.152344 210.703125 168.597656 211.960938 168.921875 L 211.960938 174.4375 C 211.960938 174.757812 211.992188 175.078125 212.054688 175.390625 C 212.117188 175.703125 212.207031 176.011719 212.332031 176.304688 C 212.453125 176.601562 212.605469 176.882812 212.78125 177.152344 C 212.960938 177.417969 213.164062 177.664062 213.390625 177.890625 C 213.617188 178.117188 213.863281 178.320312 214.132812 178.496094 C 214.398438 178.675781 214.679688 178.824219 214.976562 178.949219 C 215.273438 179.070312 215.578125 179.164062 215.894531 179.226562 C 216.207031 179.289062 216.527344 179.320312 216.847656 179.320312 C 217.167969 179.320312 217.484375 179.289062 217.800781 179.226562 C 218.113281 179.164062 218.421875 179.070312 218.714844 178.949219 C 219.011719 178.824219 219.292969 178.675781 219.5625 178.496094 C 219.828125 178.320312 220.074219 178.117188 220.300781 177.890625 C 220.527344 177.664062 220.730469 177.417969 220.910156 177.152344 C 221.089844 176.882812 221.238281 176.601562 221.359375 176.304688 C 221.484375 176.011719 221.578125 175.703125 221.640625 175.390625 C 221.703125 175.078125 221.734375 174.757812 221.734375 174.4375 L 221.734375 168.863281 C 222.773438 168.59375 223.78125 168.246094 224.761719 167.808594 C 225.746094 167.375 226.683594 166.863281 227.578125 166.277344 C 228.476562 165.6875 229.320312 165.03125 230.105469 164.304688 C 230.894531 163.574219 231.617188 162.789062 232.277344 161.941406 C 232.9375 161.097656 233.519531 160.203125 234.03125 159.261719 C 234.542969 158.316406 234.972656 157.339844 235.324219 156.328125 C 235.675781 155.3125 235.9375 154.277344 236.117188 153.222656 C 236.296875 152.164062 236.390625 151.101562 236.394531 150.03125 Z M 236.394531 150.03125 " fill-opacity="1" fill-rule="nonzero"/><path fill="#bc0404" d="M 187.523438 130.503906 L 177.75 130.503906 C 177.429688 130.503906 177.113281 130.535156 176.796875 130.597656 C 176.484375 130.660156 176.179688 130.75 175.882812 130.875 C 175.585938 130.996094 175.304688 131.148438 175.035156 131.324219 C 174.769531 131.503906 174.523438 131.707031 174.296875 131.933594 C 174.070312 132.160156 173.867188 132.40625 173.6875 132.671875 C 173.511719 132.9375 173.359375 133.21875 173.238281 133.515625 C 173.113281 133.8125 173.019531 134.117188 172.957031 134.433594 C 172.894531 134.746094 172.863281 135.0625 172.863281 135.382812 C 172.863281 135.703125 172.894531 136.023438 172.957031 136.335938 C 173.019531 136.652344 173.113281 136.957031 173.238281 137.253906 C 173.359375 137.546875 173.511719 137.832031 173.6875 138.097656 C 173.867188 138.363281 174.070312 138.609375 174.296875 138.835938 C 174.523438 139.0625 174.769531 139.265625 175.035156 139.445312 C 175.304688 139.621094 175.585938 139.773438 175.882812 139.894531 C 176.179688 140.015625 176.484375 140.109375 176.796875 140.171875 C 177.113281 140.234375 177.429688 140.265625 177.75 140.265625 L 187.523438 140.265625 C 187.847656 140.265625 188.164062 140.234375 188.480469 140.171875 C 188.792969 140.109375 189.097656 140.015625 189.394531 139.894531 C 189.691406 139.773438 189.972656 139.621094 190.238281 139.445312 C 190.507812 139.265625 190.753906 139.0625 190.980469 138.835938 C 191.207031 138.609375 191.410156 138.363281 191.589844 138.097656 C 191.765625 137.832031 191.917969 137.546875 192.039062 137.253906 C 192.164062 136.957031 192.253906 136.652344 192.316406 136.335938 C 192.378906 136.023438 192.410156 135.703125 192.410156 135.382812 C 192.410156 135.0625 192.378906 134.746094 192.316406 134.433594 C 192.253906 134.117188 192.164062 133.8125 192.039062 133.515625 C 191.917969 133.21875 191.765625 132.9375 191.589844 132.671875 C 191.410156 132.40625 191.207031 132.160156 190.980469 131.933594 C 190.753906 131.707031 190.507812 131.503906 190.238281 131.324219 C 189.972656 131.148438 189.691406 130.996094 189.394531 130.875 C 189.097656 130.75 188.792969 130.660156 188.480469 130.597656 C 188.164062 130.535156 187.847656 130.503906 187.523438 130.503906 Z M 187.523438 130.503906 " fill-opacity="1" fill-rule="nonzero"/><path fill="#f4bea6" d="M 169.359375 302.707031 C 159.925781 302.707031 143.867188 280.421875 153.316406 280.421875 C 162.769531 280.421875 178.808594 302.707031 169.359375 302.707031 Z M 169.359375 302.707031 " fill-opacity="1" fill-rule="nonzero"/></svg>