<svg xmlns="http://www.w3.org/2000/svg" xmlns:xlink="http://www.w3.org/1999/xlink" width="500" zoomAndPan="magnify" viewBox="0 0 375 374.999991" height="500" preserveAspectRatio="xMidYMid meet" version="1.0"><defs><clipPath id="859dd62a78"><path d="M 30.429688 127 L 344.679688 127 L 344.679688 364 L 30.429688 364 Z M 30.429688 127 " clip-rule="nonzero"/></clipPath><clipPath id="a436f689ed"><path d="M 30.429688 49 L 344.679688 49 L 344.679688 138 L 30.429688 138 Z M 30.429688 49 " clip-rule="nonzero"/></clipPath></defs><path fill="#66757f" d="M 293.761719 49.058594 L 313.359375 49.058594 L 313.359375 58.871094 L 293.761719 58.871094 Z M 293.761719 49.058594 " fill-opacity="1" fill-rule="nonzero"/><g clip-path="url(#859dd62a78)"><path fill="#ccd6dd" d="M 30.429688 127.546875 L 30.429688 323.761719 C 30.429688 345.433594 48.015625 363.003906 69.710938 363.003906 L 305.398438 363.003906 C 327.089844 363.003906 344.679688 345.433594 344.679688 323.761719 L 344.679688 127.546875 Z M 30.429688 127.546875 " fill-opacity="1" fill-rule="nonzero"/></g><g clip-path="url(#a436f689ed)"><path fill="#dd2e44" d="M 305.398438 49.058594 L 69.710938 49.058594 C 48.015625 49.058594 30.429688 66.628906 30.429688 88.300781 L 30.429688 137.355469 L 344.679688 137.355469 L 344.679688 88.300781 C 344.679688 66.628906 327.089844 49.058594 305.398438 49.058594 Z M 305.398438 49.058594 " fill-opacity="1" fill-rule="nonzero"/></g><path fill="#292f33" d="M 97.558594 95.472656 C 90.664062 95.472656 85.078125 88.941406 85.078125 80.867188 C 85.078125 72.800781 90.664062 66.257812 97.558594 66.257812 C 104.445312 66.257812 110.03125 72.800781 110.03125 80.867188 C 110.03125 88.929688 104.445312 95.472656 97.558594 95.472656 Z M 156.480469 95.472656 C 149.585938 95.472656 144 88.941406 144 80.867188 C 144 72.800781 149.585938 66.257812 156.480469 66.257812 C 163.367188 66.257812 168.953125 72.800781 168.953125 80.867188 C 168.953125 88.929688 163.367188 95.472656 156.480469 95.472656 Z M 215.402344 95.472656 C 208.507812 95.472656 202.921875 88.941406 202.921875 80.867188 C 202.921875 72.800781 208.507812 66.257812 215.402344 66.257812 C 222.289062 66.257812 227.886719 72.800781 227.886719 80.867188 C 227.875 88.929688 222.289062 95.472656 215.402344 95.472656 Z M 274.324219 95.472656 C 267.429688 95.472656 261.84375 88.941406 261.84375 80.867188 C 261.84375 72.800781 267.429688 66.257812 274.324219 66.257812 C 281.210938 66.257812 286.808594 72.800781 286.808594 80.867188 C 286.796875 88.929688 281.210938 95.472656 274.324219 95.472656 Z M 274.324219 95.472656 " fill-opacity="1" fill-rule="nonzero"/><path fill="#66757f" d="M 279.03125 11.574219 C 266.488281 11.574219 255.628906 19.441406 249.628906 30.898438 C 243.675781 19.6875 232.765625 11.574219 220.109375 11.574219 C 207.566406 11.574219 196.707031 19.441406 190.707031 30.898438 C 184.753906 19.6875 173.84375 11.574219 161.1875 11.574219 C 148.644531 11.574219 137.785156 19.441406 131.785156 30.898438 C 125.832031 19.6875 114.921875 11.574219 102.265625 11.574219 C 83.269531 11.574219 67.894531 29.417969 67.894531 50.863281 C 67.894531 69.054688 78.15625 83.9375 93.121094 89.382812 C 100.574219 92.078125 105.140625 84.996094 104.503906 79.316406 C 103.960938 74.605469 100.828125 71.535156 97.34375 69.328125 C 92.582031 66.316406 87.523438 59.4375 87.523438 50.914062 C 87.523438 40.082031 94.113281 30.359375 102.253906 30.359375 C 110.394531 30.359375 116.984375 39.238281 116.984375 49.050781 L 126.960938 49.050781 C 126.933594 49.65625 126.804688 50.238281 126.804688 50.855469 C 126.804688 69.042969 137.066406 83.925781 152.03125 89.371094 C 159.488281 92.070312 164.054688 84.988281 163.414062 79.304688 C 162.875 74.605469 159.742188 71.535156 156.253906 69.328125 C 151.492188 66.316406 146.433594 59.4375 146.433594 50.914062 C 146.433594 40.082031 153.023438 30.359375 161.164062 30.359375 C 169.308594 30.359375 175.917969 39.25 175.917969 49.058594 L 185.894531 49.058594 C 185.863281 49.667969 185.738281 50.246094 185.738281 50.863281 C 185.738281 69.054688 196 83.9375 210.964844 89.382812 C 218.417969 92.078125 222.984375 84.996094 222.347656 79.316406 C 221.804688 74.617188 218.671875 71.546875 215.1875 69.339844 C 210.425781 66.328125 205.367188 59.449219 205.367188 50.921875 C 205.367188 40.09375 211.957031 30.371094 220.097656 30.371094 C 228.238281 30.371094 234.839844 39.25 234.839844 49.058594 L 244.816406 49.058594 C 244.785156 49.667969 244.660156 50.246094 244.660156 50.863281 C 244.660156 69.054688 254.921875 83.9375 269.886719 89.382812 C 277.339844 92.078125 281.90625 84.996094 281.269531 79.316406 C 280.726562 74.617188 277.59375 71.546875 274.109375 69.339844 C 269.347656 66.328125 264.289062 59.449219 264.289062 50.921875 C 264.289062 40.09375 270.878906 30.371094 279.019531 30.371094 C 287.160156 30.371094 293.761719 39.25 293.761719 49.058594 L 313.359375 49.058594 C 313.15625 29.4375 297.882812 11.574219 279.03125 11.574219 Z M 279.03125 11.574219 " fill-opacity="1" fill-rule="nonzero"/><path fill="#ffffff" d="M 118.8125 156.976562 L 158.09375 156.976562 L 158.09375 196.222656 L 118.8125 196.222656 Z M 167.914062 156.976562 L 207.195312 156.976562 L 207.195312 196.222656 L 167.914062 196.222656 Z M 217.015625 156.976562 L 256.296875 156.976562 L 256.296875 196.222656 L 217.015625 196.222656 Z M 266.117188 156.976562 L 305.398438 156.976562 L 305.398438 196.222656 L 266.117188 196.222656 Z M 69.710938 206.03125 L 108.992188 206.03125 L 108.992188 245.273438 L 69.710938 245.273438 Z M 118.8125 206.03125 L 158.09375 206.03125 L 158.09375 245.273438 L 118.8125 245.273438 Z M 167.914062 206.03125 L 207.195312 206.03125 L 207.195312 245.273438 L 167.914062 245.273438 Z M 217.015625 206.03125 L 256.296875 206.03125 L 256.296875 245.273438 L 217.015625 245.273438 Z M 266.117188 206.03125 L 305.398438 206.03125 L 305.398438 245.273438 L 266.117188 245.273438 Z M 69.710938 255.085938 L 108.992188 255.085938 L 108.992188 294.328125 L 69.710938 294.328125 Z M 118.8125 255.085938 L 158.09375 255.085938 L 158.09375 294.328125 L 118.8125 294.328125 Z M 167.914062 255.085938 L 207.195312 255.085938 L 207.195312 294.328125 L 167.914062 294.328125 Z M 217.015625 255.085938 L 256.296875 255.085938 L 256.296875 294.328125 L 217.015625 294.328125 Z M 266.117188 255.085938 L 305.398438 255.085938 L 305.398438 294.328125 L 266.117188 294.328125 Z M 69.710938 304.140625 L 108.992188 304.140625 L 108.992188 343.382812 L 69.710938 343.382812 Z M 118.8125 304.140625 L 158.09375 304.140625 L 158.09375 343.382812 L 118.8125 343.382812 Z M 167.914062 304.140625 L 207.195312 304.140625 L 207.195312 343.382812 L 167.914062 343.382812 Z M 167.914062 304.140625 " fill-opacity="1" fill-rule="nonzero"/></svg>