<svg xmlns="http://www.w3.org/2000/svg" xmlns:xlink="http://www.w3.org/1999/xlink" width="500" zoomAndPan="magnify" viewBox="0 0 375 374.999991" height="500" preserveAspectRatio="xMidYMid meet" version="1.0"><path fill="#ffffff" d="M 342.46875 195.210938 L 328.207031 195.210938 L 328.207031 341.417969 C 328.148438 342.402344 327.992188 343.371094 327.742188 344.328125 C 327.488281 345.285156 327.148438 346.207031 326.71875 347.09375 C 326.285156 347.980469 325.773438 348.820312 325.175781 349.609375 C 324.582031 350.398438 323.917969 351.121094 323.179688 351.777344 C 322.441406 352.4375 321.648438 353.015625 320.800781 353.519531 C 319.949219 354.023438 319.058594 354.4375 318.128906 354.765625 C 317.195312 355.097656 316.242188 355.332031 315.265625 355.472656 C 314.289062 355.617188 313.304688 355.664062 312.320312 355.613281 L 228.089844 355.613281 L 228.089844 255.921875 C 228.089844 255.238281 228.023438 254.5625 227.890625 253.890625 C 227.757812 253.222656 227.558594 252.570312 227.296875 251.9375 C 227.035156 251.308594 226.714844 250.707031 226.335938 250.136719 C 225.957031 249.570312 225.523438 249.042969 225.042969 248.558594 C 224.558594 248.078125 224.03125 247.644531 223.464844 247.265625 C 222.894531 246.882812 222.296875 246.5625 221.664062 246.300781 C 221.03125 246.039062 220.382812 245.839844 219.710938 245.707031 C 219.039062 245.574219 218.363281 245.507812 217.679688 245.507812 L 156.570312 245.507812 C 155.886719 245.507812 155.207031 245.574219 154.535156 245.707031 C 153.867188 245.839844 153.214844 246.039062 152.582031 246.300781 C 151.953125 246.5625 151.351562 246.882812 150.78125 247.261719 C 150.214844 247.640625 149.6875 248.074219 149.207031 248.558594 C 148.722656 249.042969 148.289062 249.566406 147.910156 250.136719 C 147.53125 250.707031 147.210938 251.304688 146.949219 251.9375 C 146.6875 252.570312 146.492188 253.222656 146.355469 253.890625 C 146.222656 254.5625 146.15625 255.238281 146.160156 255.921875 L 146.160156 355.605469 L 61.921875 355.605469 C 60.941406 355.660156 59.960938 355.613281 58.984375 355.476562 C 58.011719 355.335938 57.058594 355.101562 56.132812 354.773438 C 55.203125 354.449219 54.3125 354.035156 53.464844 353.535156 C 52.617188 353.035156 51.828125 352.457031 51.09375 351.800781 C 50.359375 351.144531 49.695312 350.421875 49.101562 349.636719 C 48.511719 348.851562 48 348.015625 47.570312 347.128906 C 47.140625 346.242188 46.804688 345.320312 46.554688 344.371094 C 46.308594 343.417969 46.152344 342.449219 46.09375 341.464844 L 46.09375 195.210938 L 31.773438 195.210938 C 15.90625 195.210938 7.304688 180.269531 17.703125 170.679688 L 174.417969 25.800781 C 175.398438 24.96875 176.445312 24.230469 177.554688 23.585938 C 178.667969 22.941406 179.824219 22.398438 181.03125 21.957031 C 182.238281 21.515625 183.472656 21.183594 184.738281 20.960938 C 186.003906 20.738281 187.277344 20.628906 188.5625 20.632812 C 189.847656 20.636719 191.121094 20.75 192.386719 20.976562 C 193.652344 21.207031 194.886719 21.542969 196.089844 21.988281 C 197.292969 22.433594 198.449219 22.980469 199.558594 23.628906 C 200.667969 24.28125 201.710938 25.023438 202.6875 25.855469 C 253.992188 74.148438 305.320312 122.4375 356.667969 170.730469 C 366.875 180.410156 358.28125 195.210938 342.46875 195.210938 Z M 342.46875 195.210938 " fill-opacity="1" fill-rule="nonzero"/></svg>