<svg xmlns="http://www.w3.org/2000/svg" xmlns:xlink="http://www.w3.org/1999/xlink" width="500" zoomAndPan="magnify" viewBox="0 0 375 374.999991" height="500" preserveAspectRatio="xMidYMid meet" version="1.0"><defs><clipPath id="98a0bfa750"><path d="M 11 138 L 364 138 L 364 286.332031 L 11 286.332031 Z M 11 138 " clip-rule="nonzero"/></clipPath><clipPath id="36b2833602"><path d="M 19 69.582031 L 309 69.582031 L 309 251 L 19 251 Z M 19 69.582031 " clip-rule="nonzero"/></clipPath></defs><g clip-path="url(#98a0bfa750)"><path fill="#abd9f4" d="M 363.84375 148 L 320.976562 138.832031 L 332.0625 158.125 L 162.148438 256.792969 L 95.707031 227.300781 L 11.226562 273.421875 L 18.324219 286.355469 L 96.371094 243.785156 L 163.035156 273.421875 L 339.378906 170.910156 L 350.246094 189.683594 Z M 363.84375 148 " fill-opacity="1" fill-rule="nonzero"/></g><path fill="#abd9f4" d="M 118.46875 204.613281 C 118.476562 201.164062 118.769531 197.738281 119.355469 194.339844 C 121.160156 198.269531 122.527344 202.34375 123.449219 206.570312 C 124.371094 210.792969 124.828125 215.070312 124.824219 219.394531 C 124.828125 215.070312 124.371094 210.792969 123.449219 206.570312 C 122.527344 202.34375 121.160156 198.269531 119.355469 194.339844 C 118.769531 197.738281 118.476562 201.164062 118.46875 204.613281 Z M 118.46875 204.613281 " fill-opacity="1" fill-rule="nonzero"/><g clip-path="url(#36b2833602)"><path fill="#abd9f4" d="M 119.355469 194.339844 C 118.023438 191.367188 116.433594 188.539062 114.59375 185.851562 C 112.75 183.167969 110.683594 180.667969 108.394531 178.351562 C 106.105469 176.035156 103.625 173.941406 100.960938 172.070312 C 98.292969 170.199219 95.484375 168.582031 92.527344 167.214844 C 93.628906 166.492188 94.6875 165.714844 95.707031 164.882812 C 96.722656 164.046875 97.691406 163.160156 98.617188 162.222656 C 99.539062 161.285156 100.410156 160.300781 101.226562 159.269531 C 102.046875 158.238281 102.804688 157.167969 103.507812 156.054688 C 104.214844 154.941406 104.855469 153.796875 105.4375 152.613281 C 106.015625 151.433594 106.53125 150.226562 106.984375 148.988281 C 107.4375 147.753906 107.820312 146.496094 108.140625 145.21875 C 108.457031 143.941406 108.703125 142.652344 108.882812 141.347656 C 109.0625 140.042969 109.175781 138.734375 109.214844 137.417969 C 109.253906 136.105469 109.222656 134.789062 109.121094 133.476562 C 109.023438 132.167969 108.851562 130.863281 108.613281 129.570312 C 108.371094 128.273438 108.0625 126.996094 107.6875 125.738281 C 107.3125 124.476562 106.867188 123.238281 106.359375 122.023438 C 105.851562 120.808594 105.28125 119.628906 104.644531 118.472656 C 104.011719 117.320312 103.316406 116.207031 102.5625 115.128906 C 101.808594 114.050781 101 113.015625 100.132812 112.023438 C 99.269531 111.03125 98.355469 110.085938 97.386719 109.191406 C 96.421875 108.296875 95.414062 107.457031 94.355469 106.671875 C 93.300781 105.886719 92.207031 105.15625 91.074219 104.488281 C 89.941406 103.816406 88.777344 103.210938 87.578125 102.667969 C 86.378906 102.121094 85.15625 101.640625 83.910156 101.226562 C 82.660156 100.8125 81.390625 100.464844 80.105469 100.1875 C 78.820312 99.910156 77.523438 99.699219 76.214844 99.558594 C 74.90625 99.417969 73.59375 99.347656 72.277344 99.347656 C 70.960938 99.347656 69.648438 99.417969 68.339844 99.558594 C 67.03125 99.699219 65.734375 99.910156 64.449219 100.1875 C 63.160156 100.464844 61.894531 100.8125 60.644531 101.226562 C 59.394531 101.640625 58.171875 102.121094 56.972656 102.667969 C 55.777344 103.210938 54.609375 103.816406 53.476562 104.488281 C 52.34375 105.15625 51.25 105.886719 50.195312 106.671875 C 49.140625 107.457031 48.128906 108.296875 47.164062 109.191406 C 46.199219 110.085938 45.285156 111.03125 44.417969 112.023438 C 43.554688 113.015625 42.746094 114.050781 41.992188 115.128906 C 41.238281 116.207031 40.542969 117.320312 39.90625 118.472656 C 39.273438 119.628906 38.699219 120.808594 38.191406 122.023438 C 37.683594 123.238281 37.242188 124.476562 36.867188 125.738281 C 36.488281 126.996094 36.179688 128.273438 35.941406 129.570312 C 35.703125 130.863281 35.53125 132.167969 35.429688 133.476562 C 35.328125 134.789062 35.300781 136.105469 35.339844 137.417969 C 35.378906 138.734375 35.488281 140.042969 35.667969 141.347656 C 35.847656 142.652344 36.097656 143.941406 36.414062 145.21875 C 36.730469 146.496094 37.117188 147.753906 37.566406 148.988281 C 38.019531 150.226562 38.535156 151.433594 39.117188 152.613281 C 39.699219 153.796875 40.339844 154.941406 41.042969 156.054688 C 41.746094 157.167969 42.507812 158.238281 43.324219 159.269531 C 44.144531 160.300781 45.015625 161.285156 45.9375 162.222656 C 46.859375 163.160156 47.832031 164.046875 48.847656 164.882812 C 49.867188 165.714844 50.925781 166.492188 52.027344 167.214844 C 49.585938 168.382812 47.246094 169.71875 44.996094 171.222656 C 42.75 172.726562 40.621094 174.382812 38.609375 176.1875 C 36.597656 177.996094 34.726562 179.9375 32.992188 182.011719 C 31.257812 184.089844 29.679688 186.277344 28.261719 188.578125 C 26.839844 190.878906 25.589844 193.269531 24.511719 195.746094 C 23.429688 198.226562 22.535156 200.769531 21.816406 203.378906 C 21.101562 205.984375 20.574219 208.628906 20.238281 211.3125 C 19.898438 213.996094 19.753906 216.691406 19.800781 219.394531 L 19.800781 250.804688 L 96 207.050781 L 120.761719 218.136719 L 161.410156 235.503906 L 216.765625 204.167969 L 221.347656 201.136719 L 308.339844 151.914062 C 305.785156 148.828125 302.917969 146.070312 299.738281 143.636719 C 296.554688 141.203125 293.140625 139.160156 289.492188 137.503906 C 290.59375 136.78125 291.65625 136.007812 292.675781 135.171875 C 293.695312 134.339844 294.664062 133.453125 295.589844 132.515625 C 296.515625 131.578125 297.386719 130.59375 298.207031 129.5625 C 299.023438 128.535156 299.785156 127.460938 300.492188 126.351562 C 301.195312 125.238281 301.839844 124.089844 302.421875 122.910156 C 303.003906 121.730469 303.523438 120.519531 303.976562 119.285156 C 304.429688 118.050781 304.816406 116.792969 305.132812 115.515625 C 305.453125 114.238281 305.703125 112.945312 305.882812 111.640625 C 306.0625 110.339844 306.175781 109.027344 306.214844 107.710938 C 306.253906 106.394531 306.226562 105.082031 306.125 103.769531 C 306.027344 102.457031 305.859375 101.152344 305.617188 99.855469 C 305.378906 98.5625 305.070312 97.285156 304.695312 96.023438 C 304.320312 94.761719 303.878906 93.523438 303.371094 92.308594 C 302.863281 91.09375 302.292969 89.910156 301.65625 88.753906 C 301.023438 87.601562 300.328125 86.484375 299.574219 85.40625 C 298.820312 84.328125 298.011719 83.289062 297.144531 82.296875 C 296.28125 81.304688 295.367188 80.359375 294.398438 79.464844 C 293.433594 78.570312 292.425781 77.730469 291.367188 76.941406 C 290.3125 76.15625 289.21875 75.425781 288.085938 74.757812 C 286.953125 74.085938 285.785156 73.480469 284.585938 72.933594 C 283.390625 72.386719 282.164062 71.910156 280.914062 71.492188 C 279.664062 71.078125 278.398438 70.734375 277.109375 70.453125 C 275.824219 70.175781 274.527344 69.964844 273.21875 69.824219 C 271.90625 69.683594 270.59375 69.613281 269.277344 69.613281 C 267.960938 69.613281 266.648438 69.683594 265.339844 69.824219 C 264.03125 69.964844 262.734375 70.175781 261.445312 70.453125 C 260.160156 70.734375 258.890625 71.078125 257.640625 71.492188 C 256.390625 71.910156 255.167969 72.386719 253.96875 72.933594 C 252.773438 73.480469 251.605469 74.085938 250.472656 74.757812 C 249.339844 75.425781 248.246094 76.15625 247.1875 76.941406 C 246.132812 77.730469 245.121094 78.570312 244.15625 79.464844 C 243.191406 80.359375 242.277344 81.304688 241.410156 82.296875 C 240.546875 83.289062 239.738281 84.328125 238.984375 85.40625 C 238.230469 86.484375 237.535156 87.601562 236.902344 88.753906 C 236.265625 89.910156 235.695312 91.09375 235.1875 92.308594 C 234.679688 93.523438 234.238281 94.761719 233.859375 96.023438 C 233.484375 97.285156 233.179688 98.5625 232.9375 99.855469 C 232.699219 101.152344 232.53125 102.457031 232.429688 103.769531 C 232.332031 105.082031 232.300781 106.394531 232.34375 107.710938 C 232.382812 109.027344 232.492188 110.339844 232.675781 111.640625 C 232.855469 112.945312 233.105469 114.238281 233.425781 115.515625 C 233.742188 116.792969 234.128906 118.050781 234.582031 119.285156 C 235.035156 120.519531 235.550781 121.730469 236.136719 122.910156 C 236.71875 124.089844 237.359375 125.238281 238.066406 126.351562 C 238.769531 127.460938 239.53125 128.535156 240.351562 129.5625 C 241.171875 130.59375 242.042969 131.578125 242.96875 132.515625 C 243.890625 133.453125 244.863281 134.339844 245.882812 135.171875 C 246.902344 136.007812 247.960938 136.78125 249.066406 137.503906 C 247.007812 138.507812 245.023438 139.632812 243.105469 140.878906 C 241.1875 142.125 239.351562 143.484375 237.601562 144.953125 C 235.851562 146.425781 234.195312 148 232.636719 149.671875 C 231.078125 151.347656 229.628906 153.113281 228.289062 154.964844 C 226.945312 156.816406 225.722656 158.742188 224.617188 160.746094 C 223.511719 162.75 222.53125 164.8125 221.679688 166.933594 C 220.828125 169.054688 220.105469 171.222656 219.519531 173.433594 C 218.933594 175.644531 218.484375 177.882812 218.171875 180.148438 C 217.042969 177.046875 215.613281 174.09375 213.882812 171.285156 C 212.152344 168.476562 210.15625 165.871094 207.894531 163.46875 C 205.628906 161.070312 203.148438 158.917969 200.449219 157.023438 C 197.75 155.128906 194.886719 153.523438 191.859375 152.210938 C 192.953125 151.484375 194.007812 150.703125 195.015625 149.863281 C 196.027344 149.027344 196.992188 148.136719 197.90625 147.195312 C 198.820312 146.253906 199.683594 145.269531 200.496094 144.234375 C 201.304688 143.203125 202.058594 142.128906 202.753906 141.015625 C 203.453125 139.902344 204.085938 138.757812 204.660156 137.574219 C 205.234375 136.394531 205.742188 135.1875 206.1875 133.953125 C 206.632812 132.714844 207.011719 131.460938 207.324219 130.1875 C 207.636719 128.910156 207.878906 127.621094 208.050781 126.320312 C 208.226562 125.019531 208.332031 123.710938 208.367188 122.398438 C 208.398438 121.085938 208.363281 119.777344 208.261719 118.46875 C 208.15625 117.160156 207.980469 115.859375 207.738281 114.570312 C 207.496094 113.28125 207.183594 112.007812 206.804688 110.75 C 206.425781 109.492188 205.980469 108.257812 205.46875 107.050781 C 204.957031 105.839844 204.386719 104.660156 203.75 103.511719 C 203.113281 102.363281 202.417969 101.253906 201.660156 100.179688 C 200.90625 99.105469 200.097656 98.074219 199.234375 97.085938 C 198.367188 96.097656 197.453125 95.15625 196.488281 94.265625 C 195.523438 93.375 194.515625 92.539062 193.460938 91.757812 C 192.40625 90.972656 191.3125 90.25 190.183594 89.582031 C 189.050781 88.917969 187.886719 88.3125 186.691406 87.769531 C 185.496094 87.226562 184.277344 86.75 183.03125 86.335938 C 181.785156 85.925781 180.519531 85.578125 179.234375 85.300781 C 177.953125 85.023438 176.65625 84.816406 175.351562 84.675781 C 174.046875 84.539062 172.738281 84.46875 171.425781 84.46875 C 170.113281 84.46875 168.800781 84.539062 167.496094 84.675781 C 166.191406 84.816406 164.898438 85.023438 163.613281 85.300781 C 162.332031 85.578125 161.066406 85.925781 159.820312 86.335938 C 158.574219 86.75 157.351562 87.226562 156.15625 87.769531 C 154.960938 88.3125 153.796875 88.917969 152.664062 89.582031 C 151.535156 90.25 150.441406 90.972656 149.386719 91.757812 C 148.332031 92.539062 147.324219 93.375 146.359375 94.265625 C 145.394531 95.15625 144.480469 96.097656 143.617188 97.085938 C 142.75 98.074219 141.941406 99.105469 141.1875 100.179688 C 140.433594 101.253906 139.738281 102.363281 139.101562 103.511719 C 138.464844 104.660156 137.890625 105.839844 137.378906 107.050781 C 136.867188 108.257812 136.425781 109.492188 136.046875 110.75 C 135.664062 112.007812 135.355469 113.28125 135.109375 114.570312 C 134.867188 115.859375 134.695312 117.160156 134.589844 118.46875 C 134.484375 119.777344 134.449219 121.085938 134.484375 122.398438 C 134.519531 123.710938 134.621094 125.019531 134.796875 126.320312 C 134.96875 127.621094 135.214844 128.910156 135.523438 130.1875 C 135.835938 131.460938 136.214844 132.714844 136.660156 133.953125 C 137.105469 135.1875 137.613281 136.394531 138.1875 137.574219 C 138.761719 138.757812 139.398438 139.902344 140.09375 141.015625 C 140.789062 142.128906 141.542969 143.203125 142.351562 144.234375 C 143.164062 145.269531 144.027344 146.253906 144.941406 147.195312 C 145.859375 148.136719 146.820312 149.027344 147.832031 149.863281 C 148.84375 150.703125 149.894531 151.484375 150.988281 152.210938 C 148.9375 153.183594 146.949219 154.277344 145.027344 155.488281 C 143.109375 156.703125 141.269531 158.027344 139.511719 159.46875 C 137.753906 160.90625 136.085938 162.445312 134.515625 164.085938 C 132.945312 165.726562 131.480469 167.457031 130.121094 169.273438 C 128.757812 171.09375 127.515625 172.988281 126.382812 174.960938 C 125.253906 176.929688 124.25 178.960938 123.367188 181.054688 C 122.484375 183.148438 121.734375 185.289062 121.113281 187.472656 C 120.488281 189.660156 120.003906 191.871094 119.652344 194.117188 " fill-opacity="1" fill-rule="nonzero"/></g></svg>