<svg id="SvgjsSvg1001" width="288" height="288" xmlns="http://www.w3.org/2000/svg" version="1.1" xmlns:xlink="http://www.w3.org/1999/xlink" xmlns:svgjs="http://svgjs.com/svgjs"><defs id="SvgjsDefs1002"></defs><g id="SvgjsG1008"><svg xmlns="http://www.w3.org/2000/svg" version="1.0" viewBox="0 0 375 375" width="288" height="288"><defs><clipPath id="a"><path d="M 252 228 L 325.90625 228 L 325.90625 270 L 252 270 Z M 252 228 "></path></clipPath><clipPath id="b"><path d="M 97 33.144531 L 275 33.144531 L 275 134 L 97 134 Z M 97 33.144531 "></path></clipPath></defs><path fill="#cecece" d="M 288.972656 118.457031 L 275.953125 118.457031 L 260.550781 133.894531 L 275.699219 133.894531 C 277.445312 133.894531 278.875 135.289062 278.875 137.070312 C 278.875 138.816406 277.445312 140.246094 275.699219 140.246094 L 75.832031 140.246094 C 74.085938 140.246094 72.65625 138.816406 72.65625 137.070312 C 72.65625 135.289062 74.085938 133.894531 75.832031 133.894531 L 88.09375 133.894531 L 103.527344 118.457031 L 68.75 118.457031 C 58.269531 118.457031 49.851562 127.097656 50.171875 137.609375 C 50.488281 147.835938 59.347656 155.648438 69.578125 155.648438 L 295.167969 155.648438 L 295.167969 124.652344 C 295.167969 121.253906 292.40625 118.457031 288.972656 118.457031 Z M 288.972656 118.457031 " class="color0f1c39 svgShape"></path><path fill="#cecece" d="M 246.289062 248.769531 C 246.289062 263.632812 258.390625 275.765625 273.285156 275.765625 L 313.554688 275.765625 L 313.554688 332.550781 C 313.554688 337.695312 309.394531 341.855469 304.25 341.855469 L 79.867188 341.855469 C 63.445312 341.855469 50.171875 328.550781 50.171875 312.128906 L 50.171875 153.363281 C 54.902344 158.632812 61.890625 162 69.578125 162 L 313.078125 162 C 313.398438 162.921875 313.554688 163.90625 313.554688 164.921875 L 313.554688 221.773438 L 273.285156 221.773438 C 258.390625 221.773438 246.289062 233.871094 246.289062 248.769531 Z M 246.289062 248.769531 " class="color0f1c39 svgShape"></path><g clip-path="url(#a)"><path fill="#cecece" d="M 321.019531 228.125 L 273.285156 228.125 C 261.851562 228.125 252.640625 237.367188 252.640625 248.769531 C 252.640625 260.171875 261.851562 269.414062 273.285156 269.414062 L 321.019531 269.414062 C 323.339844 269.414062 325.148438 267.539062 325.148438 265.25 L 325.148438 232.253906 C 325.148438 230 323.339844 228.125 321.019531 228.125 Z M 278.015625 257.566406 C 273.125 257.566406 269.1875 253.628906 269.1875 248.769531 C 269.1875 243.878906 273.125 239.9375 278.015625 239.9375 C 282.875 239.9375 286.816406 243.878906 286.816406 248.769531 C 286.816406 253.628906 282.875 257.566406 278.015625 257.566406 Z M 278.015625 257.566406 " class="color0f1c39 svgShape"></path></g><g clip-path="url(#b)"><path fill="#cecece" d="M 272.777344 112.675781 L 251.5625 133.894531 L 229.425781 133.894531 L 242.699219 120.617188 C 235.425781 113.34375 235.457031 101.527344 242.730469 94.257812 L 213.957031 65.480469 C 206.683594 72.753906 194.871094 72.785156 187.597656 65.511719 L 119.21875 133.894531 L 97.082031 133.894531 L 195.535156 35.4375 C 197.757812 33.214844 201.378906 33.214844 203.601562 35.4375 L 272.777344 104.609375 C 275 106.832031 275 110.457031 272.777344 112.675781 Z M 272.777344 112.675781 " class="color0f1c39 svgShape"></path></g><path fill="#cecece" d="M 215.582031 100.882812 C 215.582031 101.402344 215.527344 101.917969 215.425781 102.429688 C 215.324219 102.941406 215.175781 103.4375 214.976562 103.917969 C 214.777344 104.402344 214.53125 104.859375 214.242188 105.292969 C 213.953125 105.726562 213.625 106.128906 213.253906 106.496094 C 212.886719 106.863281 212.484375 107.195312 212.050781 107.484375 C 211.617188 107.773438 211.160156 108.015625 210.679688 108.21875 C 210.195312 108.417969 209.699219 108.566406 209.1875 108.667969 C 208.679688 108.769531 208.160156 108.820312 207.640625 108.820312 C 207.117188 108.820312 206.601562 108.769531 206.089844 108.667969 C 205.578125 108.566406 205.082031 108.417969 204.601562 108.21875 C 204.121094 108.015625 203.664062 107.773438 203.230469 107.484375 C 202.796875 107.195312 202.394531 106.863281 202.027344 106.496094 C 201.65625 106.128906 201.328125 105.726562 201.039062 105.292969 C 200.75 104.859375 200.503906 104.402344 200.304688 103.917969 C 200.105469 103.4375 199.953125 102.941406 199.851562 102.429688 C 199.75 101.917969 199.699219 101.402344 199.699219 100.882812 C 199.699219 100.359375 199.75 99.84375 199.851562 99.332031 C 199.953125 98.820312 200.105469 98.324219 200.304688 97.84375 C 200.503906 97.359375 200.75 96.902344 201.039062 96.46875 C 201.328125 96.035156 201.65625 95.636719 202.027344 95.265625 C 202.394531 94.898438 202.796875 94.570312 203.230469 94.28125 C 203.664062 93.988281 204.121094 93.746094 204.601562 93.546875 C 205.082031 93.347656 205.578125 93.195312 206.089844 93.09375 C 206.601562 92.992188 207.117188 92.941406 207.640625 92.941406 C 208.160156 92.941406 208.679688 92.992188 209.1875 93.09375 C 209.699219 93.195312 210.195312 93.347656 210.679688 93.546875 C 211.160156 93.746094 211.617188 93.988281 212.050781 94.28125 C 212.484375 94.570312 212.886719 94.898438 213.253906 95.265625 C 213.625 95.636719 213.953125 96.035156 214.242188 96.46875 C 214.53125 96.902344 214.777344 97.359375 214.976562 97.84375 C 215.175781 98.324219 215.324219 98.820312 215.425781 99.332031 C 215.527344 99.84375 215.582031 100.359375 215.582031 100.882812 Z M 215.582031 100.882812 " class="color0f1c39 svgShape"></path></svg></g></svg>