<svg xmlns="http://www.w3.org/2000/svg" xmlns:xlink="http://www.w3.org/1999/xlink" width="500" zoomAndPan="magnify" viewBox="0 0 375 374.999991" height="500" preserveAspectRatio="xMidYMid meet" version="1.0"><defs><clipPath id="831a1f8577"><path d="M 21.855469 33 L 353.355469 33 L 353.355469 364.578125 L 21.855469 364.578125 Z M 21.855469 33 " clip-rule="nonzero"/></clipPath><clipPath id="df75db029f"><path d="M 86 10.578125 L 289 10.578125 L 289 58 L 86 58 Z M 86 10.578125 " clip-rule="nonzero"/></clipPath><clipPath id="0f3537bc95"><path d="M 78.726562 87.726562 L 296.226562 87.726562 L 296.226562 305.226562 L 78.726562 305.226562 Z M 78.726562 87.726562 " clip-rule="nonzero"/></clipPath></defs><g clip-path="url(#831a1f8577)"><path fill="#dce3ef" d="M 324.765625 364.375 L 50.226562 364.375 C 34.582031 364.375 21.855469 351.648438 21.855469 336.007812 L 21.855469 61.464844 C 21.855469 45.824219 34.582031 33.097656 50.226562 33.097656 L 324.765625 33.097656 C 340.410156 33.097656 353.132812 45.824219 353.132812 61.464844 L 353.132812 336.007812 C 353.132812 351.648438 340.410156 364.375 324.765625 364.375 Z M 50.226562 43.152344 C 40.128906 43.152344 31.914062 51.367188 31.914062 61.464844 L 31.914062 336.007812 C 31.914062 346.105469 40.128906 354.316406 50.226562 354.316406 L 324.765625 354.316406 C 334.863281 354.316406 343.078125 346.105469 343.078125 336.007812 L 343.078125 61.464844 C 343.078125 51.367188 334.863281 43.152344 324.765625 43.152344 Z M 50.226562 43.152344 " fill-opacity="1" fill-rule="nonzero"/></g><g clip-path="url(#df75db029f)"><path fill="#dce3ef" d="M 277.183594 57.941406 L 97.808594 57.941406 C 91.636719 57.941406 86.632812 52.941406 86.632812 46.769531 L 86.632812 21.792969 C 86.632812 15.621094 91.636719 10.617188 97.808594 10.617188 L 277.183594 10.617188 C 283.355469 10.617188 288.359375 15.621094 288.359375 21.792969 L 288.359375 46.769531 C 288.359375 52.941406 283.355469 57.941406 277.183594 57.941406 Z M 277.183594 57.941406 " fill-opacity="1" fill-rule="nonzero"/></g><path fill="#ffffff" d="M 142.152344 28.511719 C 141.765625 26.773438 139.890625 26.027344 138.210938 26.054688 C 136.914062 26.082031 135.480469 26.523438 134.707031 27.515625 C 134.320312 28.015625 134.183594 28.648438 134.238281 29.308594 C 134.375 31.296875 136.554688 31.542969 138.625 31.738281 C 141.269531 32.066406 144.550781 32.757812 145.296875 35.84375 C 145.378906 36.257812 145.433594 36.726562 145.433594 37.113281 C 145.433594 40.835938 141.738281 42.988281 138.265625 42.988281 C 135.285156 42.988281 131.675781 41.222656 131.316406 37.777344 L 131.289062 37.253906 L 134.101562 37.195312 L 134.128906 37.609375 L 134.128906 37.5 C 134.320312 39.292969 136.5 40.230469 138.292969 40.230469 C 140.359375 40.230469 142.621094 39.070312 142.621094 37.085938 C 142.621094 36.894531 142.59375 36.671875 142.539062 36.425781 C 142.207031 34.964844 140.222656 34.714844 138.292969 34.523438 C 135.285156 34.21875 131.757812 33.558594 131.453125 29.53125 C 131.34375 28.261719 131.675781 26.964844 132.5 25.890625 C 133.796875 24.207031 136.113281 23.328125 138.347656 23.328125 C 141.324219 23.328125 144.414062 24.871094 144.910156 28.398438 Z M 142.152344 28.511719 " fill-opacity="1" fill-rule="nonzero"/><path fill="#ffffff" d="M 150.398438 26.304688 C 152.082031 24.566406 154.453125 23.4375 157.074219 23.4375 C 161.484375 23.4375 164.960938 26.195312 166.0625 30.550781 L 163.304688 30.550781 C 162.285156 27.65625 159.914062 26.195312 157.074219 26.195312 C 155.226562 26.195312 153.542969 26.992188 152.332031 28.261719 C 151.117188 29.53125 150.34375 31.242188 150.34375 33.226562 C 150.34375 35.15625 151.117188 36.867188 152.332031 38.132812 C 153.542969 39.402344 155.226562 40.203125 157.074219 40.203125 C 159.996094 40.203125 162.480469 38.519531 163.472656 35.597656 L 166.203125 35.597656 C 165.097656 39.980469 161.570312 42.960938 157.074219 42.960938 C 154.453125 42.960938 152.082031 41.855469 150.398438 40.09375 C 148.746094 38.328125 147.644531 35.902344 147.644531 33.226562 C 147.644531 30.496094 148.746094 28.070312 150.398438 26.304688 Z M 150.398438 26.304688 " fill-opacity="1" fill-rule="nonzero"/><path fill="#ffffff" d="M 179.304688 37.140625 L 172.382812 37.140625 C 171.636719 38.90625 170.671875 41.222656 170.066406 42.824219 L 167.058594 42.824219 L 174.808594 23.269531 L 176.847656 23.269531 L 184.597656 42.824219 L 181.621094 42.824219 Z M 173.429688 34.523438 L 178.226562 34.523438 L 175.855469 27.710938 Z M 173.429688 34.523438 " fill-opacity="1" fill-rule="nonzero"/><path fill="#ffffff" d="M 186.007812 42.824219 L 186.007812 23.492188 L 188.15625 23.519531 L 197.558594 37.113281 L 197.558594 23.519531 L 200.320312 23.519531 L 200.320312 42.824219 L 198.113281 42.824219 L 188.792969 29.335938 L 188.792969 42.824219 Z M 186.007812 42.824219 " fill-opacity="1" fill-rule="nonzero"/><path fill="#ffffff" d="M 213.613281 42.824219 L 210.828125 42.824219 L 210.828125 23.519531 L 213.089844 23.519531 L 219.460938 32.894531 L 225.828125 23.519531 L 228.035156 23.519531 L 228.035156 42.824219 L 225.277344 42.824219 L 225.277344 29.226562 L 220.230469 36.726562 L 218.660156 36.726562 L 213.613281 29.226562 Z M 213.613281 42.824219 " fill-opacity="1" fill-rule="nonzero"/><path fill="#ffffff" d="M 234.050781 40.039062 L 243.011719 40.039062 L 243.011719 42.824219 L 231.238281 42.824219 L 231.238281 23.546875 L 242.984375 23.546875 L 242.984375 26.332031 L 234.050781 26.332031 L 234.050781 31.765625 L 242.792969 31.765625 L 242.792969 34.578125 L 234.050781 34.578125 Z M 234.050781 40.039062 " fill-opacity="1" fill-rule="nonzero"/><g clip-path="url(#0f3537bc95)"><path fill="#dce3ef" d="M 107.144531 119.652344 L 107.144531 178.960938 C 107.144531 180.898438 108.714844 182.46875 110.652344 182.46875 L 169.960938 182.46875 C 171.898438 182.46875 173.46875 180.898438 173.46875 178.960938 L 173.46875 119.652344 C 173.46875 117.714844 171.898438 116.144531 169.960938 116.144531 L 110.652344 116.144531 C 108.710938 116.144531 107.144531 117.710938 107.144531 119.652344 Z M 114.152344 123.152344 L 166.449219 123.152344 L 166.449219 175.449219 L 114.152344 175.449219 Z M 78.726562 129.332031 L 78.726562 91.234375 C 78.726562 89.300781 80.300781 87.726562 82.234375 87.726562 L 120.332031 87.726562 C 122.269531 87.726562 123.839844 89.300781 123.839844 91.234375 C 123.839844 93.171875 122.269531 94.742188 120.332031 94.742188 L 85.742188 94.742188 L 85.742188 129.332031 C 85.742188 131.269531 84.171875 132.839844 82.234375 132.839844 C 80.300781 132.839844 78.726562 131.269531 78.726562 129.332031 Z M 251.152344 91.234375 C 251.152344 89.300781 252.722656 87.726562 254.660156 87.726562 L 292.753906 87.726562 C 294.691406 87.726562 296.261719 89.300781 296.261719 91.234375 L 296.261719 129.332031 C 296.261719 131.269531 294.691406 132.839844 292.753906 132.839844 C 290.820312 132.839844 289.246094 131.269531 289.246094 129.332031 L 289.246094 94.742188 L 254.660156 94.742188 C 252.722656 94.742188 251.152344 93.171875 251.152344 91.234375 Z M 123.839844 301.753906 C 123.839844 303.691406 122.269531 305.261719 120.332031 305.261719 L 82.234375 305.261719 C 80.300781 305.261719 78.726562 303.691406 78.726562 301.753906 L 78.726562 263.660156 C 78.726562 261.722656 80.300781 260.152344 82.234375 260.152344 C 84.171875 260.152344 85.742188 261.722656 85.742188 263.660156 L 85.742188 298.25 L 120.332031 298.25 C 122.269531 298.25 123.839844 299.820312 123.839844 301.753906 Z M 296.261719 263.660156 L 296.261719 301.753906 C 296.261719 303.691406 294.691406 305.261719 292.753906 305.261719 L 254.660156 305.261719 C 252.722656 305.261719 251.152344 303.691406 251.152344 301.753906 C 251.152344 299.820312 252.722656 298.25 254.660156 298.25 L 289.246094 298.25 L 289.246094 263.660156 C 289.246094 261.722656 290.820312 260.152344 292.753906 260.152344 C 294.691406 260.152344 296.261719 261.722656 296.261719 263.660156 Z M 205.027344 182.46875 L 264.339844 182.46875 C 266.277344 182.46875 267.847656 180.898438 267.847656 178.960938 L 267.847656 119.652344 C 267.847656 117.714844 266.277344 116.144531 264.339844 116.144531 L 205.027344 116.144531 C 203.09375 116.144531 201.523438 117.714844 201.523438 119.652344 L 201.523438 178.960938 C 201.523438 180.898438 203.09375 182.46875 205.027344 182.46875 Z M 208.535156 123.152344 L 260.832031 123.152344 L 260.832031 175.449219 L 208.535156 175.449219 Z M 169.960938 210.523438 L 110.652344 210.523438 C 108.714844 210.523438 107.144531 212.09375 107.144531 214.03125 L 107.144531 273.339844 C 107.144531 275.277344 108.714844 276.847656 110.652344 276.847656 L 169.960938 276.847656 C 171.898438 276.847656 173.46875 275.277344 173.46875 273.339844 L 173.46875 214.03125 C 173.46875 212.09375 171.898438 210.523438 169.960938 210.523438 Z M 166.453125 269.839844 L 114.152344 269.839844 L 114.152344 217.542969 L 166.449219 217.542969 L 166.449219 269.839844 Z M 215.460938 259.402344 L 205.027344 259.402344 C 203.09375 259.402344 201.523438 260.972656 201.523438 262.910156 L 201.523438 273.339844 C 201.523438 275.277344 203.09375 276.847656 205.027344 276.847656 L 215.460938 276.847656 C 217.394531 276.847656 218.96875 275.277344 218.96875 273.339844 L 218.96875 262.910156 C 218.96875 260.972656 217.402344 259.402344 215.460938 259.402344 Z M 211.953125 269.839844 L 208.535156 269.839844 L 208.535156 266.421875 L 211.953125 266.421875 Z M 191.003906 119.652344 L 191.003906 119.691406 C 191.003906 121.625 189.433594 123.199219 187.496094 123.199219 C 185.558594 123.199219 183.988281 121.625 183.988281 119.691406 L 183.988281 119.652344 C 183.988281 117.714844 185.558594 116.144531 187.496094 116.144531 C 189.433594 116.144531 191.003906 117.710938 191.003906 119.652344 Z M 191.003906 132.164062 L 191.003906 178.960938 C 191.003906 180.898438 189.433594 182.46875 187.496094 182.46875 C 185.558594 182.46875 183.988281 180.898438 183.988281 178.960938 L 183.988281 132.164062 C 183.988281 130.230469 185.558594 128.65625 187.496094 128.65625 C 189.433594 128.65625 191.003906 130.230469 191.003906 132.164062 Z M 191.003906 196.472656 L 191.003906 196.511719 C 191.003906 198.449219 189.433594 200.019531 187.496094 200.019531 C 185.558594 200.019531 183.988281 198.449219 183.988281 196.511719 L 183.988281 196.472656 C 183.988281 194.539062 185.558594 192.964844 187.496094 192.964844 C 189.433594 192.964844 191.003906 194.539062 191.003906 196.472656 Z M 191.003906 273.300781 L 191.003906 273.339844 C 191.003906 275.277344 189.433594 276.847656 187.496094 276.847656 C 185.558594 276.847656 183.988281 275.277344 183.988281 273.339844 L 183.988281 273.300781 C 183.988281 271.367188 185.558594 269.792969 187.496094 269.792969 C 189.433594 269.792969 191.003906 271.367188 191.003906 273.300781 Z M 191.003906 214.03125 L 191.003906 260.828125 C 191.003906 262.761719 189.433594 264.335938 187.496094 264.335938 C 185.558594 264.335938 183.988281 262.761719 183.988281 260.828125 L 183.988281 214.03125 C 183.988281 212.09375 185.558594 210.523438 187.496094 210.523438 C 189.433594 210.523438 191.003906 212.09375 191.003906 214.03125 Z M 110.691406 192.988281 C 112.625 192.988281 114.199219 194.558594 114.199219 196.496094 C 114.199219 198.433594 112.625 200.003906 110.691406 200.003906 L 110.652344 200.003906 C 108.714844 200.003906 107.144531 198.433594 107.144531 196.496094 C 107.144531 194.558594 108.714844 192.988281 110.652344 192.988281 Z M 173.46875 196.496094 C 173.46875 198.433594 171.898438 200.003906 169.960938 200.003906 L 123.164062 200.003906 C 121.230469 200.003906 119.65625 198.433594 119.65625 196.496094 C 119.65625 194.558594 121.230469 192.988281 123.164062 192.988281 L 169.960938 192.988281 C 171.898438 192.988281 173.46875 194.558594 173.46875 196.496094 Z M 267.847656 196.496094 C 267.847656 198.433594 266.277344 200.003906 264.339844 200.003906 L 264.300781 200.003906 C 262.367188 200.003906 260.792969 198.433594 260.792969 196.496094 C 260.792969 194.558594 262.367188 192.988281 264.300781 192.988281 L 264.339844 192.988281 C 266.28125 192.988281 267.847656 194.558594 267.847656 196.496094 Z M 251.828125 200.003906 L 205.027344 200.003906 C 203.09375 200.003906 201.523438 198.433594 201.523438 196.496094 C 201.523438 194.558594 203.09375 192.988281 205.027344 192.988281 L 251.828125 192.988281 C 253.761719 192.988281 255.335938 194.558594 255.335938 196.496094 C 255.335938 198.433594 253.761719 200.003906 251.828125 200.003906 Z M 153.316406 139.800781 L 153.316406 158.808594 C 153.316406 160.742188 151.742188 162.316406 149.808594 162.316406 L 130.800781 162.316406 C 128.863281 162.316406 127.292969 160.742188 127.292969 158.808594 L 127.292969 139.800781 C 127.292969 137.863281 128.863281 136.292969 130.800781 136.292969 L 149.808594 136.292969 C 151.742188 136.292969 153.316406 137.863281 153.316406 139.800781 Z M 247.699219 139.800781 L 247.699219 158.808594 C 247.699219 160.742188 246.128906 162.316406 244.191406 162.316406 L 225.183594 162.316406 C 223.246094 162.316406 221.675781 160.742188 221.675781 158.808594 L 221.675781 139.800781 C 221.675781 137.863281 223.246094 136.292969 225.183594 136.292969 L 244.191406 136.292969 C 246.128906 136.292969 247.699219 137.863281 247.699219 139.800781 Z M 127.292969 253.191406 L 127.292969 234.183594 C 127.292969 232.246094 128.863281 230.675781 130.800781 230.675781 L 149.808594 230.675781 C 151.742188 230.675781 153.316406 232.246094 153.316406 234.183594 L 153.316406 253.191406 C 153.316406 255.128906 151.742188 256.699219 149.808594 256.699219 L 130.800781 256.699219 C 128.863281 256.699219 127.292969 255.128906 127.292969 253.191406 Z M 201.523438 224.617188 L 201.523438 214.035156 C 201.523438 212.097656 203.09375 210.527344 205.027344 210.527344 C 206.964844 210.527344 208.535156 212.097656 208.535156 214.035156 L 208.535156 224.617188 C 208.535156 226.554688 206.964844 228.125 205.027344 228.125 C 203.09375 228.125 201.523438 226.554688 201.523438 224.617188 Z M 219.679688 217.535156 L 219.679688 224.617188 C 219.679688 226.546875 218.113281 228.109375 216.1875 228.109375 C 214.257812 228.109375 212.699219 226.542969 212.699219 224.617188 L 212.699219 214.03125 C 212.699219 212.097656 214.261719 210.539062 216.1875 210.539062 C 216.292969 210.539062 216.390625 210.542969 216.492188 210.554688 C 216.628906 210.539062 216.769531 210.527344 216.914062 210.527344 L 229.191406 210.527344 C 231.128906 210.527344 232.699219 212.097656 232.699219 214.035156 C 232.699219 215.972656 231.128906 217.542969 229.191406 217.542969 L 219.679688 217.542969 Z M 267.847656 214.03125 L 267.847656 273.339844 C 267.847656 275.277344 266.277344 276.847656 264.339844 276.847656 C 262.402344 276.847656 260.832031 275.277344 260.832031 273.339844 L 260.832031 214.03125 C 260.832031 212.09375 262.402344 210.523438 264.339844 210.523438 C 266.28125 210.523438 267.847656 212.09375 267.847656 214.03125 Z M 201.523438 234.671875 L 201.523438 234.636719 C 201.523438 232.699219 203.09375 231.128906 205.027344 231.128906 C 206.964844 231.128906 208.535156 232.699219 208.535156 234.636719 L 208.535156 234.671875 C 208.535156 236.609375 206.964844 238.179688 205.027344 238.179688 C 203.09375 238.179688 201.523438 236.609375 201.523438 234.671875 Z M 232.695312 224.574219 L 232.695312 224.613281 C 232.695312 226.546875 231.121094 228.121094 229.1875 228.121094 C 227.25 228.121094 225.679688 226.546875 225.679688 224.613281 L 225.679688 224.574219 C 225.679688 222.636719 227.25 221.066406 229.1875 221.066406 C 231.121094 221.066406 232.695312 222.636719 232.695312 224.574219 Z M 256.769531 214.03125 C 256.769531 215.964844 255.199219 217.535156 253.261719 217.535156 L 241.082031 217.535156 C 239.144531 217.535156 237.574219 215.964844 237.574219 214.03125 C 237.574219 212.09375 239.144531 210.523438 241.082031 210.523438 L 253.261719 210.523438 C 255.199219 210.523438 256.769531 212.09375 256.769531 214.03125 Z M 201.523438 252.515625 L 201.523438 245.359375 C 201.523438 243.421875 203.09375 241.851562 205.027344 241.851562 C 206.964844 241.851562 208.535156 243.421875 208.535156 245.359375 L 208.535156 252.515625 C 208.535156 254.453125 206.964844 256.023438 205.027344 256.023438 C 203.09375 256.023438 201.523438 254.453125 201.523438 252.515625 Z M 253.261719 276.847656 L 241.082031 276.847656 C 239.144531 276.847656 237.574219 275.277344 237.574219 273.339844 C 237.574219 271.402344 239.144531 269.832031 241.082031 269.832031 L 253.261719 269.832031 C 255.199219 269.832031 256.769531 271.402344 256.769531 273.339844 C 256.769531 275.277344 255.199219 276.847656 253.261719 276.847656 Z M 237.574219 262.914062 C 237.574219 260.980469 239.144531 259.40625 241.082031 259.40625 L 253.261719 259.40625 C 255.199219 259.40625 256.769531 260.980469 256.769531 262.914062 C 256.769531 264.851562 255.199219 266.421875 253.261719 266.421875 L 241.082031 266.421875 C 239.144531 266.421875 237.574219 264.851562 237.574219 262.914062 Z M 236.773438 234.636719 C 236.773438 236.570312 235.203125 238.144531 233.265625 238.144531 L 225.238281 238.144531 C 223.300781 238.144531 221.730469 236.570312 221.730469 234.636719 C 221.730469 232.699219 223.300781 231.128906 225.238281 231.128906 L 233.265625 231.128906 C 235.203125 231.128906 236.773438 232.699219 236.773438 234.636719 Z M 230.539062 273.300781 L 230.539062 273.339844 C 230.539062 275.277344 228.96875 276.847656 227.03125 276.847656 C 225.097656 276.847656 223.523438 275.277344 223.523438 273.339844 L 223.523438 273.300781 C 223.523438 271.367188 225.097656 269.792969 227.03125 269.792969 C 228.972656 269.792969 230.539062 271.367188 230.539062 273.300781 Z M 230.539062 262.894531 L 230.539062 262.929688 C 230.539062 264.867188 228.96875 266.4375 227.03125 266.4375 C 225.097656 266.4375 223.523438 264.867188 223.523438 262.929688 L 223.523438 262.894531 C 223.523438 260.957031 225.097656 259.386719 227.03125 259.386719 C 228.972656 259.386719 230.539062 260.957031 230.539062 262.894531 Z M 218.96875 252.480469 L 218.96875 252.515625 C 218.96875 254.453125 217.394531 256.023438 215.460938 256.023438 C 213.523438 256.023438 211.953125 254.453125 211.953125 252.515625 L 211.953125 252.480469 C 211.953125 250.542969 213.523438 248.972656 215.460938 248.972656 C 217.394531 248.972656 218.96875 250.542969 218.96875 252.480469 Z M 218.96875 243.542969 C 218.96875 245.480469 217.394531 247.050781 215.460938 247.050781 C 213.523438 247.050781 211.953125 245.480469 211.953125 243.542969 C 211.953125 241.601562 213.523438 240.035156 215.460938 240.035156 C 217.394531 240.03125 218.96875 241.601562 218.96875 243.542969 Z M 218.96875 234.671875 C 218.96875 236.609375 217.394531 238.179688 215.460938 238.179688 C 213.523438 238.179688 211.953125 236.609375 211.953125 234.671875 L 211.953125 234.636719 C 211.953125 232.699219 213.523438 231.128906 215.460938 231.128906 C 217.394531 231.128906 218.96875 232.699219 218.96875 234.636719 Z M 253.257812 228.125 C 251.320312 228.125 249.75 226.554688 249.75 224.617188 L 249.75 224.578125 C 249.75 222.644531 251.320312 221.070312 253.257812 221.070312 C 255.191406 221.070312 256.765625 222.644531 256.765625 224.578125 L 256.765625 224.617188 C 256.765625 226.554688 255.191406 228.125 253.257812 228.125 Z M 234.753906 224.574219 C 234.753906 222.636719 236.328125 221.066406 238.261719 221.066406 L 243.246094 221.066406 C 245.179688 221.066406 246.753906 222.636719 246.753906 224.574219 C 246.753906 226.511719 245.179688 228.082031 243.246094 228.082031 L 238.261719 228.082031 C 236.328125 228.082031 234.753906 226.511719 234.753906 224.574219 Z M 256.769531 234.636719 C 256.769531 232.699219 255.199219 231.128906 253.261719 231.128906 L 242.832031 231.128906 C 240.894531 231.128906 239.324219 232.699219 239.324219 234.636719 L 239.324219 245.066406 C 239.324219 247.003906 240.894531 248.574219 242.832031 248.574219 L 253.261719 248.574219 C 255.199219 248.574219 256.769531 247.003906 256.769531 245.066406 Z M 249.753906 241.558594 L 246.339844 241.558594 L 246.339844 238.144531 L 249.753906 238.144531 Z M 236.773438 243.890625 C 236.773438 245.828125 235.203125 247.398438 233.265625 247.398438 L 225.238281 247.398438 C 223.300781 247.398438 221.730469 245.828125 221.730469 243.890625 C 221.730469 241.957031 223.300781 240.382812 225.238281 240.382812 L 233.265625 240.382812 C 235.203125 240.382812 236.773438 241.957031 236.773438 243.890625 Z M 236.773438 252.515625 C 236.773438 254.453125 235.203125 256.023438 233.265625 256.023438 L 225.238281 256.023438 C 223.300781 256.023438 221.730469 254.453125 221.730469 252.515625 C 221.730469 250.582031 223.300781 249.007812 225.238281 249.007812 L 233.265625 249.007812 C 235.203125 249.007812 236.773438 250.582031 236.773438 252.515625 Z M 242.832031 257.195312 C 240.894531 257.195312 239.324219 255.621094 239.324219 253.6875 L 239.324219 253.648438 C 239.324219 251.710938 240.894531 250.140625 242.832031 250.140625 C 244.765625 250.140625 246.339844 251.710938 246.339844 253.648438 L 246.339844 253.6875 C 246.339844 255.621094 244.765625 257.195312 242.832031 257.195312 Z M 253.257812 257.195312 C 251.320312 257.195312 249.75 255.621094 249.75 253.6875 L 249.75 253.648438 C 249.75 251.710938 251.320312 250.140625 253.257812 250.140625 C 255.191406 250.140625 256.765625 251.710938 256.765625 253.648438 L 256.765625 253.6875 C 256.765625 255.621094 255.191406 257.195312 253.257812 257.195312 Z M 253.257812 257.195312 " fill-opacity="1" fill-rule="nonzero"/></g></svg>