<svg xmlns="http://www.w3.org/2000/svg" xmlns:xlink="http://www.w3.org/1999/xlink" width="500" zoomAndPan="magnify" viewBox="0 0 375 374.999991" height="500" preserveAspectRatio="xMidYMid meet" version="1.0"><defs><clipPath id="15f3955c6e"><path d="M 70 9.375 L 305 9.375 L 305 296 L 70 296 Z M 70 9.375 " clip-rule="nonzero"/></clipPath><clipPath id="574639e45d"><path d="M 37.207031 319 L 337.957031 319 L 337.957031 365.625 L 37.207031 365.625 Z M 37.207031 319 " clip-rule="nonzero"/></clipPath></defs><g clip-path="url(#15f3955c6e)"><path fill="#00d300" d="M 187.5 295.289062 C 245.519531 267.082031 282.527344 221.074219 297.5 158.515625 C 306.207031 122.15625 304.546875 90.347656 303.269531 77.289062 C 283.738281 86.929688 265.054688 88.3125 247.648438 81.394531 C 214.800781 68.34375 195.488281 29.324219 187.5 9.375 C 179.511719 29.324219 160.199219 68.34375 127.347656 81.394531 C 109.945312 88.3125 91.261719 86.929688 71.730469 77.289062 C 70.453125 90.347656 68.792969 122.160156 77.5 158.515625 C 92.472656 221.074219 129.480469 267.082031 187.5 295.289062 Z M 93.308594 113.617188 C 94.269531 112.691406 95.59375 112.226562 96.90625 112.367188 C 99.570312 112.644531 102.269531 112.785156 104.933594 112.785156 C 134.867188 112.785156 161.394531 96.128906 183.789062 63.28125 C 184.628906 62.054688 186.019531 61.320312 187.5 61.320312 C 188.25 61.320312 188.964844 61.507812 189.601562 61.835938 C 190.238281 62.179688 190.789062 62.667969 191.210938 63.28125 C 213.597656 96.128906 240.117188 112.785156 270.050781 112.785156 L 270.074219 112.785156 C 272.738281 112.785156 275.4375 112.644531 278.085938 112.367188 C 279.410156 112.226562 280.734375 112.691406 281.683594 113.617188 C 282.640625 114.546875 283.132812 115.855469 283.027344 117.175781 C 282.070312 129.519531 280.117188 141.566406 277.222656 153.003906 C 264.695312 202.527344 235.234375 240.253906 189.652344 265.136719 C 188.980469 265.503906 188.238281 265.691406 187.5 265.691406 C 186.761719 265.691406 186.019531 265.503906 185.347656 265.136719 C 139.765625 240.253906 110.304688 202.527344 97.777344 153.003906 C 94.882812 141.574219 92.929688 129.519531 91.972656 117.175781 C 91.867188 115.855469 92.359375 114.542969 93.308594 113.617188 Z M 93.308594 113.617188 " fill-opacity="1" fill-rule="nonzero"/></g><path fill="#00d300" d="M 187.5 256.070312 C 229.578125 232.429688 256.835938 197.023438 268.527344 150.804688 C 270.882812 141.472656 272.585938 131.703125 273.613281 121.6875 C 272.429688 121.742188 271.25 121.761719 270.074219 121.761719 L 270.050781 121.761719 C 251.855469 121.761719 234.589844 116.136719 218.75 105.039062 C 207.574219 97.207031 197.089844 86.644531 187.5 73.578125 C 177.910156 86.644531 167.417969 97.207031 156.242188 105.039062 C 139.367188 116.855469 120.871094 122.496094 101.386719 121.6875 C 102.414062 131.703125 104.117188 141.480469 106.472656 150.804688 C 118.164062 197.023438 145.421875 232.429688 187.5 256.070312 Z M 140.132812 159.734375 C 140.132812 153.421875 145.269531 148.292969 151.582031 148.292969 L 153.691406 148.292969 L 153.691406 132.800781 C 153.691406 113.730469 169.210938 98.210938 188.292969 98.210938 C 207.367188 98.210938 222.886719 113.730469 222.886719 132.800781 L 222.886719 148.292969 L 223.417969 148.292969 C 229.730469 148.292969 234.867188 153.421875 234.867188 159.734375 L 234.867188 201.644531 C 234.867188 205.75 232.648438 209.566406 229.070312 211.597656 L 193.15625 231.980469 C 192.9375 232.101562 192.714844 232.21875 192.488281 232.324219 C 191.816406 232.652344 191.121094 232.910156 190.402344 233.089844 C 189.453125 233.34375 188.472656 233.460938 187.5 233.460938 C 185.546875 233.460938 183.589844 232.96875 181.84375 231.972656 L 145.929688 211.597656 C 142.351562 209.566406 140.132812 205.75 140.132812 201.644531 Z M 140.132812 159.734375 " fill-opacity="1" fill-rule="nonzero"/><path fill="#00d300" d="M 166.886719 135.335938 C 166.886719 123.632812 176.414062 114.101562 188.121094 114.101562 C 199.828125 114.101562 209.355469 123.632812 209.355469 135.335938 L 209.355469 148.292969 L 213.910156 148.292969 L 213.910156 132.800781 C 213.910156 118.671875 202.414062 107.183594 188.292969 107.183594 C 174.164062 107.183594 162.667969 118.671875 162.667969 132.800781 L 162.667969 148.292969 L 166.886719 148.292969 Z M 166.886719 135.335938 " fill-opacity="1" fill-rule="nonzero"/><path fill="#00d300" d="M 175.863281 135.335938 L 175.863281 148.292969 L 200.378906 148.292969 L 200.378906 135.335938 C 200.378906 128.582031 194.882812 123.078125 188.121094 123.078125 C 181.359375 123.078125 175.863281 128.582031 175.863281 135.335938 Z M 175.863281 135.335938 " fill-opacity="1" fill-rule="nonzero"/><path fill="#00d300" d="M 150.363281 203.796875 L 186.28125 224.171875 C 187.035156 224.597656 187.972656 224.597656 188.71875 224.171875 L 224.636719 203.796875 C 225.414062 203.355469 225.890625 202.535156 225.890625 201.644531 L 225.890625 159.734375 C 225.890625 158.375 224.785156 157.269531 223.414062 157.269531 L 151.582031 157.269531 C 150.214844 157.269531 149.105469 158.375 149.105469 159.734375 L 149.105469 201.644531 C 149.105469 202.535156 149.585938 203.355469 150.363281 203.796875 Z M 173.886719 180.941406 C 173.886719 173.4375 179.996094 167.328125 187.5 167.328125 C 195.003906 167.328125 201.113281 173.4375 201.113281 180.941406 C 201.113281 186.878906 197.296875 191.933594 191.988281 193.789062 L 191.988281 197.335938 L 199.847656 205.195312 C 201.597656 206.945312 201.597656 209.789062 199.847656 211.539062 C 198.972656 212.414062 197.820312 212.855469 196.675781 212.855469 C 195.523438 212.855469 194.375 212.414062 193.5 211.539062 L 187.550781 205.585938 L 181.5 211.636719 C 180.625 212.519531 179.472656 212.953125 178.320312 212.953125 C 177.175781 212.953125 176.027344 212.519531 175.152344 211.636719 C 173.402344 209.886719 173.402344 207.042969 175.152344 205.292969 L 183.011719 197.433594 L 183.011719 193.789062 C 177.703125 191.933594 173.886719 186.878906 173.886719 180.941406 Z M 173.886719 180.941406 " fill-opacity="1" fill-rule="nonzero"/><path fill="#00d300" d="M 192.136719 180.941406 C 192.136719 181.246094 192.109375 181.546875 192.046875 181.84375 C 191.988281 182.144531 191.902344 182.433594 191.785156 182.714844 C 191.667969 182.996094 191.523438 183.261719 191.355469 183.515625 C 191.1875 183.769531 190.996094 184.003906 190.777344 184.21875 C 190.5625 184.433594 190.328125 184.628906 190.078125 184.796875 C 189.824219 184.964844 189.554688 185.109375 189.273438 185.226562 C 188.992188 185.339844 188.703125 185.429688 188.40625 185.488281 C 188.105469 185.546875 187.804688 185.578125 187.5 185.578125 C 187.195312 185.578125 186.894531 185.546875 186.59375 185.488281 C 186.296875 185.429688 186.007812 185.339844 185.726562 185.226562 C 185.445312 185.109375 185.175781 184.964844 184.921875 184.796875 C 184.671875 184.628906 184.4375 184.433594 184.222656 184.21875 C 184.003906 184.003906 183.8125 183.769531 183.644531 183.515625 C 183.476562 183.261719 183.332031 182.996094 183.214844 182.714844 C 183.097656 182.433594 183.011719 182.144531 182.953125 181.84375 C 182.890625 181.546875 182.863281 181.246094 182.863281 180.941406 C 182.863281 180.636719 182.890625 180.335938 182.953125 180.035156 C 183.011719 179.738281 183.097656 179.445312 183.214844 179.164062 C 183.332031 178.882812 183.476562 178.617188 183.644531 178.363281 C 183.8125 178.109375 184.003906 177.875 184.222656 177.660156 C 184.4375 177.445312 184.671875 177.253906 184.921875 177.085938 C 185.175781 176.914062 185.445312 176.773438 185.726562 176.65625 C 186.007812 176.539062 186.296875 176.453125 186.59375 176.390625 C 186.894531 176.332031 187.195312 176.304688 187.5 176.304688 C 187.804688 176.304688 188.105469 176.332031 188.40625 176.390625 C 188.703125 176.453125 188.992188 176.539062 189.273438 176.65625 C 189.554688 176.773438 189.824219 176.914062 190.078125 177.085938 C 190.328125 177.253906 190.5625 177.445312 190.777344 177.660156 C 190.996094 177.875 191.1875 178.109375 191.355469 178.363281 C 191.523438 178.617188 191.667969 178.882812 191.785156 179.164062 C 191.902344 179.445312 191.988281 179.738281 192.046875 180.035156 C 192.109375 180.335938 192.136719 180.636719 192.136719 180.941406 Z M 192.136719 180.941406 " fill-opacity="1" fill-rule="nonzero"/><g clip-path="url(#574639e45d)"><path fill="#00d300" d="M 37.199219 319.410156 L 37.199219 365.625 L 337.800781 365.625 L 337.800781 319.410156 Z M 121.90625 347.757812 C 123.65625 349.507812 123.65625 352.347656 121.90625 354.097656 C 121.03125 354.972656 119.878906 355.414062 118.734375 355.414062 C 117.582031 355.414062 116.4375 354.972656 115.554688 354.097656 L 109.890625 348.4375 L 104.222656 354.097656 C 103.347656 354.972656 102.195312 355.414062 101.042969 355.414062 C 99.898438 355.414062 98.746094 354.972656 97.871094 354.097656 C 96.121094 352.347656 96.121094 349.507812 97.871094 347.757812 L 103.542969 342.085938 L 97.871094 336.417969 C 96.121094 334.667969 96.121094 331.824219 97.871094 330.074219 C 99.621094 328.316406 102.464844 328.316406 104.222656 330.074219 L 109.890625 335.742188 L 115.554688 330.074219 C 117.3125 328.316406 120.15625 328.316406 121.90625 330.074219 C 123.65625 331.824219 123.65625 334.667969 121.90625 336.417969 L 116.234375 342.085938 Z M 160.707031 347.757812 C 162.457031 349.507812 162.457031 352.347656 160.707031 354.097656 C 159.832031 354.972656 158.679688 355.414062 157.539062 355.414062 C 156.386719 355.414062 155.242188 354.972656 154.367188 354.097656 L 148.695312 348.429688 L 143.027344 354.097656 C 142.152344 354.972656 141 355.414062 139.855469 355.414062 C 138.703125 355.414062 137.558594 354.972656 136.675781 354.097656 C 134.925781 352.347656 134.925781 349.507812 136.675781 347.757812 L 142.347656 342.085938 L 136.675781 336.417969 C 134.925781 334.667969 134.925781 331.824219 136.675781 330.074219 C 138.433594 328.316406 141.277344 328.316406 143.027344 330.074219 L 148.695312 335.742188 L 154.367188 330.074219 C 156.117188 328.316406 158.957031 328.316406 160.707031 330.074219 C 162.457031 331.824219 162.457031 334.667969 160.707031 336.417969 L 155.039062 342.085938 Z M 199.511719 347.757812 C 201.269531 349.507812 201.269531 352.347656 199.511719 354.097656 C 198.636719 354.972656 197.492188 355.414062 196.339844 355.414062 C 195.195312 355.414062 194.042969 354.972656 193.167969 354.097656 L 187.5 348.429688 L 181.832031 354.097656 C 180.957031 354.972656 179.804688 355.414062 178.660156 355.414062 C 177.507812 355.414062 176.363281 354.972656 175.488281 354.097656 C 173.730469 352.347656 173.730469 349.507812 175.488281 347.757812 L 181.15625 342.085938 L 175.488281 336.417969 C 173.730469 334.667969 173.730469 331.824219 175.488281 330.074219 C 177.238281 328.316406 180.082031 328.316406 181.832031 330.074219 L 187.5 335.746094 L 193.167969 330.074219 C 194.917969 328.316406 197.761719 328.316406 199.511719 330.074219 C 201.269531 331.824219 201.269531 334.667969 199.511719 336.417969 L 193.84375 342.085938 Z M 238.324219 347.757812 C 240.074219 349.507812 240.074219 352.347656 238.324219 354.097656 C 237.441406 354.972656 236.296875 355.414062 235.144531 355.414062 C 234 355.414062 232.847656 354.972656 231.972656 354.097656 L 226.304688 348.429688 L 220.632812 354.097656 C 219.757812 354.972656 218.613281 355.414062 217.460938 355.414062 C 216.320312 355.414062 215.167969 354.972656 214.292969 354.097656 C 212.542969 352.347656 212.542969 349.507812 214.292969 347.757812 L 219.960938 342.085938 L 214.292969 336.417969 C 212.542969 334.667969 212.542969 331.824219 214.292969 330.066406 C 216.042969 328.316406 218.882812 328.316406 220.632812 330.074219 L 226.304688 335.742188 L 231.972656 330.074219 C 233.722656 328.316406 236.566406 328.316406 238.324219 330.066406 C 240.074219 331.824219 240.074219 334.667969 238.324219 336.417969 L 232.652344 342.085938 Z M 277.128906 347.757812 C 278.878906 349.507812 278.878906 352.347656 277.128906 354.097656 C 276.253906 354.972656 275.101562 355.414062 273.957031 355.414062 C 272.804688 355.414062 271.652344 354.972656 270.777344 354.097656 L 265.113281 348.4375 L 259.445312 354.097656 C 258.5625 354.972656 257.417969 355.414062 256.265625 355.414062 C 255.121094 355.414062 253.96875 354.972656 253.09375 354.097656 C 251.34375 352.347656 251.34375 349.507812 253.09375 347.757812 L 258.765625 342.085938 L 253.09375 336.417969 C 251.34375 334.667969 251.34375 331.824219 253.09375 330.074219 C 254.84375 328.316406 257.6875 328.316406 259.445312 330.074219 L 265.113281 335.742188 L 270.777344 330.074219 C 272.535156 328.316406 275.378906 328.316406 277.128906 330.074219 C 278.878906 331.824219 278.878906 334.667969 277.128906 336.417969 L 271.457031 342.085938 Z M 277.128906 347.757812 " fill-opacity="1" fill-rule="nonzero"/></g></svg>