<svg xmlns="http://www.w3.org/2000/svg" xmlns:xlink="http://www.w3.org/1999/xlink" width="500" zoomAndPan="magnify" viewBox="0 0 375 374.999991" height="500" preserveAspectRatio="xMidYMid meet" version="1.0"><path fill="#7ed957" d="M 53.175781 166.515625 C 58.75 131.074219 77.792969 99.921875 106.796875 78.808594 C 128.359375 63.109375 153.503906 54.359375 179.550781 53.1875 L 162.074219 70.667969 L 177.988281 86.578125 L 221.292969 43.277344 L 177.992188 -0.0273438 L 162.078125 15.886719 L 176.972656 30.78125 C 147.105469 32.414062 118.304688 42.589844 93.550781 60.613281 C 59.6875 85.269531 37.453125 121.636719 30.945312 163.019531 C 25.09375 200.226562 32.820312 238.300781 52.699219 270.230469 L 71.804688 258.335938 C 54.78125 230.992188 48.164062 198.382812 53.175781 166.515625 Z M 53.175781 166.515625 " fill-opacity="1" fill-rule="nonzero"/><path fill="#7ed957" d="M 85.90625 277.125 L 69.148438 292.148438 C 77.722656 301.710938 87.445312 310.199219 98.046875 317.371094 L 110.660156 298.734375 C 101.582031 292.589844 93.253906 285.320312 85.90625 277.125 Z M 85.90625 277.125 " fill-opacity="1" fill-rule="nonzero"/><path fill="#7ed957" d="M 322.222656 104.695312 L 303.117188 116.585938 C 320.140625 143.933594 326.757812 176.542969 321.75 208.410156 C 316.175781 243.851562 297.132812 275 268.125 296.117188 C 246.566406 311.816406 221.417969 320.5625 195.371094 321.734375 L 212.847656 304.257812 L 196.9375 288.34375 L 153.628906 331.648438 L 196.933594 374.949219 L 212.847656 359.039062 L 197.957031 344.148438 C 227.820312 342.511719 256.621094 332.332031 281.371094 314.3125 C 315.238281 289.65625 337.472656 253.289062 343.980469 211.90625 C 349.828125 174.699219 342.101562 136.625 322.222656 104.695312 Z M 322.222656 104.695312 " fill-opacity="1" fill-rule="nonzero"/><path fill="#7ed957" d="M 289.019531 97.796875 L 305.773438 82.777344 C 297.203125 73.214844 287.476562 64.726562 276.875 57.554688 L 264.265625 76.191406 C 273.34375 82.335938 281.671875 89.605469 289.019531 97.796875 Z M 289.019531 97.796875 " fill-opacity="1" fill-rule="nonzero"/><path fill="#7ed957" d="M 274.078125 187.675781 C 274.078125 138.957031 234.585938 99.464844 185.867188 99.464844 C 137.148438 99.464844 97.65625 138.957031 97.65625 187.675781 C 97.65625 236.394531 137.148438 275.890625 185.867188 275.890625 C 234.585938 275.890625 274.078125 236.394531 274.078125 187.675781 Z M 141.988281 222.378906 L 153.957031 205.03125 C 160.933594 212.804688 176.890625 218.589844 187.859375 218.789062 C 197.035156 218.988281 205.609375 214.203125 205.609375 207.023438 C 205.609375 200.242188 200.027344 197.449219 186.066406 196.652344 C 167.515625 195.257812 145.378906 188.476562 145.378906 166.136719 C 145.378906 148.117188 160.167969 139.375 175.238281 136.519531 L 175.238281 122.84375 L 196.496094 122.84375 L 196.496094 135.914062 C 207.300781 137.09375 216.292969 140.613281 225.15625 148.390625 L 211.59375 164.347656 C 204.613281 157.761719 196.636719 155.566406 187.261719 155.566406 C 175.695312 155.566406 169.3125 159.160156 169.3125 165.339844 C 169.3125 171.722656 175.09375 175.3125 187.660156 176.113281 C 206.210938 177.308594 229.742188 181.496094 229.742188 207.621094 C 229.742188 223.003906 218.605469 236.496094 196.496094 239.359375 L 196.496094 252.511719 L 175.238281 252.511719 L 175.238281 239.214844 C 163.824219 237.714844 152.582031 233.414062 141.988281 222.378906 Z M 141.988281 222.378906 " fill-opacity="1" fill-rule="nonzero"/></svg>