<svg xmlns="http://www.w3.org/2000/svg" xmlns:xlink="http://www.w3.org/1999/xlink" width="500" zoomAndPan="magnify" viewBox="0 0 375 374.999991" height="500" preserveAspectRatio="xMidYMid meet" version="1.0"><defs><clipPath id="68c1e8a5d1"><path d="M 62.863281 27 L 311.863281 27 L 311.863281 81 L 62.863281 81 Z M 62.863281 27 " clip-rule="nonzero"/></clipPath></defs><path fill="#ffdb15" d="M 216.597656 200.976562 C 216.597656 238.707031 202.890625 286.25 165.164062 286.25 L 89.707031 286.25 C 86.039062 286.25 67.878906 189.078125 72.789062 168.664062 C 80.738281 135.839844 108.484375 115.875 122.585938 109.277344 L 122.585938 200.976562 Z M 216.597656 200.976562 " fill-opacity="1" fill-rule="nonzero"/><g clip-path="url(#68c1e8a5d1)"><path fill="#ffdb15" d="M 312.242188 44.761719 L 312.242188 63.089844 C 312.242188 63.644531 312.214844 64.195312 312.164062 64.75 C 312.109375 65.300781 312.027344 65.847656 311.917969 66.390625 C 311.808594 66.933594 311.675781 67.472656 311.515625 68 C 311.355469 68.53125 311.167969 69.054688 310.957031 69.566406 C 310.742188 70.078125 310.507812 70.578125 310.246094 71.066406 C 309.984375 71.554688 309.699219 72.027344 309.390625 72.488281 C 309.085938 72.949219 308.753906 73.394531 308.402344 73.824219 C 308.050781 74.25 307.679688 74.660156 307.289062 75.054688 C 306.898438 75.445312 306.488281 75.816406 306.058594 76.167969 C 305.628906 76.519531 305.183594 76.851562 304.722656 77.15625 C 304.265625 77.464844 303.789062 77.75 303.300781 78.011719 C 302.8125 78.273438 302.3125 78.507812 301.800781 78.722656 C 301.289062 78.933594 300.765625 79.121094 300.234375 79.28125 C 299.707031 79.441406 299.167969 79.574219 298.625 79.683594 C 298.082031 79.792969 297.535156 79.875 296.984375 79.925781 C 296.433594 79.980469 295.878906 80.007812 295.324219 80.007812 L 79.667969 80.007812 C 79.113281 80.007812 78.558594 79.980469 78.007812 79.925781 C 77.457031 79.875 76.910156 79.792969 76.367188 79.683594 C 75.824219 79.574219 75.285156 79.441406 74.757812 79.28125 C 74.226562 79.121094 73.703125 78.933594 73.191406 78.722656 C 72.679688 78.507812 72.179688 78.273438 71.691406 78.011719 C 71.203125 77.75 70.730469 77.464844 70.269531 77.15625 C 69.808594 76.851562 69.363281 76.519531 68.933594 76.167969 C 68.507812 75.816406 68.097656 75.445312 67.703125 75.054688 C 67.3125 74.660156 66.941406 74.25 66.589844 73.824219 C 66.238281 73.394531 65.90625 72.949219 65.601562 72.488281 C 65.292969 72.027344 65.007812 71.554688 64.746094 71.066406 C 64.484375 70.578125 64.25 70.078125 64.035156 69.566406 C 63.824219 69.054688 63.636719 68.53125 63.476562 68 C 63.316406 67.472656 63.183594 66.933594 63.074219 66.390625 C 62.964844 65.847656 62.882812 65.300781 62.832031 64.75 C 62.777344 64.195312 62.75 63.644531 62.75 63.089844 L 62.75 44.761719 C 62.75 44.207031 62.777344 43.65625 62.832031 43.101562 C 62.882812 42.550781 62.964844 42.003906 63.074219 41.460938 C 63.183594 40.917969 63.316406 40.378906 63.476562 39.851562 C 63.636719 39.320312 63.824219 38.800781 64.035156 38.285156 C 64.25 37.773438 64.484375 37.273438 64.746094 36.785156 C 65.007812 36.296875 65.292969 35.824219 65.601562 35.363281 C 65.90625 34.902344 66.238281 34.457031 66.589844 34.027344 C 66.941406 33.601562 67.3125 33.191406 67.703125 32.796875 C 68.097656 32.40625 68.507812 32.035156 68.933594 31.683594 C 69.363281 31.332031 69.808594 31 70.269531 30.695312 C 70.730469 30.386719 71.203125 30.101562 71.691406 29.839844 C 72.179688 29.578125 72.679688 29.34375 73.191406 29.128906 C 73.703125 28.917969 74.226562 28.730469 74.757812 28.570312 C 75.285156 28.410156 75.824219 28.277344 76.367188 28.167969 C 76.910156 28.058594 77.457031 27.980469 78.007812 27.925781 C 78.558594 27.871094 79.113281 27.84375 79.667969 27.84375 L 295.324219 27.84375 C 295.878906 27.84375 296.433594 27.871094 296.984375 27.925781 C 297.535156 27.980469 298.082031 28.058594 298.625 28.167969 C 299.167969 28.277344 299.707031 28.410156 300.234375 28.570312 C 300.765625 28.730469 301.289062 28.917969 301.800781 29.128906 C 302.3125 29.34375 302.8125 29.578125 303.300781 29.839844 C 303.789062 30.101562 304.265625 30.386719 304.722656 30.695312 C 305.183594 31 305.628906 31.332031 306.058594 31.683594 C 306.488281 32.035156 306.898438 32.40625 307.289062 32.796875 C 307.679688 33.191406 308.050781 33.601562 308.402344 34.027344 C 308.753906 34.457031 309.085938 34.902344 309.390625 35.363281 C 309.699219 35.824219 309.984375 36.296875 310.246094 36.785156 C 310.507812 37.273438 310.742188 37.773438 310.957031 38.285156 C 311.167969 38.800781 311.355469 39.320312 311.515625 39.851562 C 311.675781 40.378906 311.808594 40.917969 311.917969 41.460938 C 312.027344 42.003906 312.109375 42.550781 312.164062 43.101562 C 312.214844 43.65625 312.242188 44.207031 312.242188 44.761719 Z M 312.242188 44.761719 " fill-opacity="1" fill-rule="nonzero"/></g><path fill="#9c27b0" d="M 274.234375 62.355469 L 100.816406 62.355469 C 100.261719 62.355469 99.710938 62.304688 99.164062 62.195312 C 98.621094 62.085938 98.089844 61.925781 97.578125 61.714844 C 97.066406 61.5 96.578125 61.238281 96.117188 60.929688 C 95.652344 60.621094 95.226562 60.273438 94.835938 59.878906 C 94.441406 59.488281 94.089844 59.058594 93.78125 58.597656 C 93.472656 58.136719 93.214844 57.648438 93 57.136719 C 92.789062 56.621094 92.628906 56.09375 92.519531 55.546875 C 92.410156 55.003906 92.355469 54.453125 92.355469 53.898438 C 92.355469 53.34375 92.410156 52.792969 92.519531 52.246094 C 92.628906 51.703125 92.789062 51.171875 93 50.660156 C 93.214844 50.148438 93.472656 49.660156 93.78125 49.199219 C 94.089844 48.734375 94.441406 48.308594 94.835938 47.914062 C 95.226562 47.523438 95.652344 47.171875 96.117188 46.863281 C 96.578125 46.554688 97.066406 46.292969 97.578125 46.082031 C 98.089844 45.871094 98.621094 45.710938 99.164062 45.601562 C 99.710938 45.492188 100.261719 45.4375 100.816406 45.4375 L 274.234375 45.4375 C 274.789062 45.4375 275.339844 45.492188 275.882812 45.601562 C 276.429688 45.710938 276.957031 45.871094 277.46875 46.082031 C 277.984375 46.292969 278.472656 46.554688 278.933594 46.863281 C 279.394531 47.171875 279.820312 47.523438 280.214844 47.914062 C 280.605469 48.308594 280.957031 48.734375 281.265625 49.199219 C 281.574219 49.660156 281.835938 50.148438 282.046875 50.660156 C 282.261719 51.171875 282.421875 51.703125 282.53125 52.246094 C 282.636719 52.792969 282.691406 53.34375 282.691406 53.898438 C 282.691406 54.453125 282.636719 55.003906 282.53125 55.546875 C 282.421875 56.09375 282.261719 56.621094 282.046875 57.136719 C 281.835938 57.648438 281.574219 58.136719 281.265625 58.597656 C 280.957031 59.058594 280.605469 59.488281 280.214844 59.878906 C 279.820312 60.273438 279.394531 60.621094 278.933594 60.929688 C 278.472656 61.238281 277.984375 61.5 277.46875 61.714844 C 276.957031 61.925781 276.429688 62.085938 275.882812 62.195312 C 275.339844 62.304688 274.789062 62.355469 274.234375 62.355469 Z M 274.234375 62.355469 " fill-opacity="1" fill-rule="nonzero"/><path fill="#0f1c39" d="M 257.992188 53.953125 L 257.992188 189.699219 C 257.992188 190.253906 257.964844 190.804688 257.910156 191.355469 C 257.855469 191.910156 257.773438 192.457031 257.664062 193 C 257.558594 193.542969 257.421875 194.078125 257.261719 194.609375 C 257.101562 195.140625 256.914062 195.660156 256.703125 196.171875 C 256.492188 196.683594 256.253906 197.183594 255.992188 197.675781 C 255.730469 198.164062 255.449219 198.636719 255.140625 199.097656 C 254.832031 199.558594 254.503906 200.003906 254.152344 200.433594 C 253.800781 200.859375 253.425781 201.269531 253.035156 201.660156 C 252.644531 202.054688 252.234375 202.425781 251.804688 202.777344 C 251.378906 203.128906 250.933594 203.457031 250.472656 203.765625 C 250.011719 204.074219 249.535156 204.359375 249.046875 204.621094 C 248.558594 204.882812 248.058594 205.117188 247.546875 205.328125 C 247.035156 205.542969 246.515625 205.726562 245.984375 205.890625 C 245.453125 206.050781 244.917969 206.183594 244.371094 206.292969 C 243.828125 206.402344 243.28125 206.480469 242.730469 206.535156 C 242.179688 206.589844 241.625 206.617188 241.070312 206.617188 L 133.921875 206.617188 C 133.367188 206.617188 132.8125 206.589844 132.261719 206.535156 C 131.710938 206.480469 131.164062 206.402344 130.621094 206.292969 C 130.074219 206.183594 129.539062 206.050781 129.007812 205.890625 C 128.480469 205.726562 127.957031 205.542969 127.445312 205.328125 C 126.933594 205.117188 126.433594 204.882812 125.945312 204.621094 C 125.457031 204.359375 124.980469 204.074219 124.519531 203.765625 C 124.058594 203.457031 123.617188 203.128906 123.1875 202.777344 C 122.757812 202.425781 122.347656 202.054688 121.957031 201.660156 C 121.566406 201.269531 121.191406 200.859375 120.84375 200.433594 C 120.492188 200.003906 120.160156 199.558594 119.851562 199.097656 C 119.542969 198.636719 119.261719 198.164062 119 197.675781 C 118.738281 197.183594 118.5 196.683594 118.289062 196.171875 C 118.078125 195.660156 117.890625 195.140625 117.730469 194.609375 C 117.570312 194.078125 117.433594 193.542969 117.328125 193 C 117.21875 192.457031 117.136719 191.910156 117.082031 191.355469 C 117.027344 190.804688 117 190.253906 117 189.699219 L 117 53.953125 Z M 257.992188 53.953125 " fill-opacity="1" fill-rule="nonzero"/><path fill="#ffdb15" d="M 109.839844 198.441406 C 110.242188 196.335938 110.925781 194.328125 111.882812 192.414062 C 112.839844 190.496094 114.039062 188.746094 115.480469 187.160156 C 125.40625 175.542969 151.910156 146.894531 168.265625 152.363281 C 190.484375 159.808594 185.183594 176.164062 175.652344 185.128906 C 162.457031 197.425781 156.875 203.628906 154.277344 210.058594 C 153.886719 211.09375 153.417969 212.097656 152.875 213.066406 C 152.335938 214.035156 151.726562 214.957031 151.046875 215.835938 C 150.371094 216.714844 149.632812 217.539062 148.832031 218.308594 C 148.035156 219.078125 147.183594 219.785156 146.277344 220.429688 C 145.375 221.074219 144.429688 221.648438 143.441406 222.152344 C 142.453125 222.65625 141.433594 223.085938 140.382812 223.441406 C 139.328125 223.792969 138.257812 224.070312 137.164062 224.265625 C 136.074219 224.460938 134.972656 224.574219 133.863281 224.609375 C 120.722656 224.664062 106.171875 220.097656 109.839844 198.441406 Z M 109.839844 198.441406 " fill-opacity="1" fill-rule="nonzero"/><path fill="#0f1c39" d="M 215.355469 286.25 L 215.355469 335.933594 C 215.355469 336.671875 215.285156 337.40625 215.140625 338.132812 C 214.996094 338.859375 214.78125 339.566406 214.496094 340.25 C 214.214844 340.933594 213.867188 341.582031 213.453125 342.199219 C 213.042969 342.816406 212.574219 343.386719 212.050781 343.910156 C 211.527344 344.433594 210.957031 344.898438 210.34375 345.3125 C 209.726562 345.722656 209.078125 346.070312 208.394531 346.355469 C 207.707031 346.636719 207.003906 346.851562 206.277344 346.996094 C 205.550781 347.140625 204.816406 347.210938 204.078125 347.210938 L 87.28125 347.210938 C 86.539062 347.210938 85.808594 347.140625 85.082031 346.996094 C 84.355469 346.851562 83.648438 346.636719 82.964844 346.355469 C 82.28125 346.070312 81.628906 345.722656 81.015625 345.3125 C 80.398438 344.898438 79.828125 344.433594 79.304688 343.910156 C 78.78125 343.386719 78.3125 342.816406 77.902344 342.199219 C 77.492188 341.582031 77.144531 340.933594 76.859375 340.25 C 76.578125 339.566406 76.363281 338.859375 76.21875 338.132812 C 76.074219 337.40625 76 336.671875 76 335.933594 L 76 286.25 C 76 285.507812 76.074219 284.773438 76.21875 284.046875 C 76.363281 283.320312 76.578125 282.617188 76.859375 281.933594 C 77.144531 281.246094 77.492188 280.597656 77.902344 279.980469 C 78.3125 279.367188 78.78125 278.796875 79.304688 278.273438 C 79.828125 277.75 80.398438 277.28125 81.015625 276.871094 C 81.628906 276.457031 82.28125 276.109375 82.964844 275.828125 C 83.648438 275.542969 84.355469 275.332031 85.082031 275.1875 C 85.808594 275.042969 86.539062 274.96875 87.28125 274.96875 L 204.078125 274.96875 C 204.816406 274.96875 205.550781 275.042969 206.277344 275.1875 C 207.003906 275.332031 207.707031 275.542969 208.394531 275.828125 C 209.078125 276.109375 209.726562 276.457031 210.34375 276.871094 C 210.957031 277.28125 211.527344 277.75 212.050781 278.273438 C 212.574219 278.796875 213.042969 279.367188 213.453125 279.980469 C 213.867188 280.597656 214.214844 281.246094 214.496094 281.933594 C 214.78125 282.617188 214.996094 283.320312 215.140625 284.046875 C 215.285156 284.773438 215.355469 285.507812 215.355469 286.25 Z M 215.355469 286.25 " fill-opacity="1" fill-rule="nonzero"/><path fill="#9c27b0" d="M 224.152344 53.953125 L 241.070312 53.953125 L 241.070312 206.617188 L 224.152344 206.617188 Z M 224.152344 53.953125 " fill-opacity="1" fill-rule="nonzero"/><path fill="#9c27b0" d="M 206.785156 127.945312 C 206.226562 127.945312 205.679688 127.890625 205.132812 127.78125 C 204.589844 127.675781 204.058594 127.515625 203.546875 127.300781 C 203.03125 127.089844 202.546875 126.828125 202.082031 126.519531 C 201.621094 126.210938 201.195312 125.859375 200.800781 125.46875 C 200.410156 125.074219 200.058594 124.648438 199.75 124.1875 C 199.441406 123.722656 199.179688 123.238281 198.96875 122.722656 C 198.753906 122.210938 198.59375 121.679688 198.488281 121.136719 C 198.378906 120.589844 198.324219 120.042969 198.324219 119.484375 L 198.324219 107.136719 C 198.324219 106.578125 198.378906 106.03125 198.488281 105.484375 C 198.59375 104.941406 198.753906 104.410156 198.96875 103.898438 C 199.179688 103.386719 199.441406 102.898438 199.75 102.433594 C 200.058594 101.972656 200.410156 101.546875 200.800781 101.152344 C 201.195312 100.761719 201.621094 100.410156 202.082031 100.101562 C 202.546875 99.792969 203.03125 99.53125 203.546875 99.320312 C 204.058594 99.105469 204.589844 98.945312 205.132812 98.839844 C 205.679688 98.730469 206.226562 98.675781 206.785156 98.675781 C 207.339844 98.675781 207.890625 98.730469 208.433594 98.839844 C 208.980469 98.945312 209.507812 99.105469 210.019531 99.320312 C 210.535156 99.53125 211.019531 99.792969 211.484375 100.101562 C 211.945312 100.410156 212.371094 100.761719 212.765625 101.152344 C 213.15625 101.546875 213.507812 101.972656 213.816406 102.433594 C 214.125 102.898438 214.386719 103.386719 214.597656 103.898438 C 214.8125 104.410156 214.972656 104.941406 215.082031 105.484375 C 215.1875 106.03125 215.242188 106.578125 215.242188 107.136719 L 215.242188 119.484375 C 215.242188 120.042969 215.1875 120.589844 215.082031 121.136719 C 214.972656 121.679688 214.8125 122.210938 214.597656 122.722656 C 214.386719 123.238281 214.125 123.722656 213.816406 124.1875 C 213.507812 124.648438 213.15625 125.074219 212.765625 125.46875 C 212.371094 125.859375 211.945312 126.210938 211.484375 126.519531 C 211.019531 126.828125 210.535156 127.089844 210.019531 127.300781 C 209.507812 127.515625 208.980469 127.675781 208.433594 127.78125 C 207.890625 127.890625 207.339844 127.945312 206.785156 127.945312 Z M 206.785156 127.945312 " fill-opacity="1" fill-rule="nonzero"/><path fill="#9c27b0" d="M 215.242188 53.953125 L 215.242188 75.777344 C 215.242188 76.335938 215.1875 76.886719 215.082031 77.429688 C 214.972656 77.972656 214.8125 78.503906 214.597656 79.015625 C 214.386719 79.53125 214.125 80.015625 213.816406 80.480469 C 213.507812 80.941406 213.15625 81.367188 212.765625 81.761719 C 212.371094 82.152344 211.945312 82.503906 211.484375 82.8125 C 211.019531 83.121094 210.535156 83.382812 210.019531 83.59375 C 209.507812 83.808594 208.980469 83.96875 208.433594 84.074219 C 207.890625 84.183594 207.339844 84.238281 206.785156 84.238281 C 206.226562 84.238281 205.679688 84.183594 205.132812 84.074219 C 204.589844 83.96875 204.058594 83.808594 203.546875 83.59375 C 203.03125 83.382812 202.546875 83.121094 202.082031 82.8125 C 201.621094 82.503906 201.195312 82.152344 200.800781 81.761719 C 200.410156 81.367188 200.058594 80.941406 199.75 80.480469 C 199.441406 80.015625 199.179688 79.53125 198.96875 79.015625 C 198.753906 78.503906 198.59375 77.972656 198.488281 77.429688 C 198.378906 76.886719 198.324219 76.335938 198.324219 75.777344 L 198.324219 53.953125 Z M 215.242188 53.953125 " fill-opacity="1" fill-rule="nonzero"/><path fill="#ffdb15" d="M 114.578125 312.191406 C 114.503906 312.742188 114.378906 313.28125 114.203125 313.808594 C 114.023438 314.332031 113.796875 314.839844 113.519531 315.320312 C 113.242188 315.800781 112.921875 316.25 112.554688 316.671875 C 112.191406 317.089844 111.785156 317.46875 111.347656 317.804688 C 110.90625 318.144531 110.4375 318.4375 109.9375 318.683594 C 109.441406 318.929688 108.921875 319.125 108.386719 319.269531 C 107.847656 319.414062 107.304688 319.503906 106.75 319.542969 C 106.195312 319.578125 105.640625 319.5625 105.089844 319.488281 C 104.539062 319.417969 104 319.292969 103.472656 319.113281 C 102.949219 318.9375 102.445312 318.707031 101.960938 318.429688 C 101.480469 318.152344 101.03125 317.832031 100.613281 317.464844 C 100.195312 317.097656 99.816406 316.695312 99.476562 316.253906 C 99.140625 315.8125 98.847656 315.34375 98.601562 314.84375 C 98.355469 314.347656 98.160156 313.828125 98.015625 313.292969 C 97.871094 312.753906 97.78125 312.210938 97.746094 311.65625 C 97.710938 311.101562 97.726562 310.546875 97.800781 309.996094 C 97.875 309.445312 98 308.90625 98.179688 308.378906 C 98.355469 307.855469 98.585938 307.351562 98.863281 306.867188 C 99.140625 306.386719 99.464844 305.9375 99.832031 305.519531 C 100.195312 305.101562 100.601562 304.726562 101.042969 304.386719 C 101.484375 304.050781 101.953125 303.757812 102.453125 303.511719 C 102.949219 303.265625 103.46875 303.070312 104.003906 302.929688 C 104.542969 302.785156 105.089844 302.695312 105.644531 302.660156 C 106.199219 302.625 106.75 302.644531 107.300781 302.714844 C 107.851562 302.789062 108.386719 302.914062 108.914062 303.09375 C 109.4375 303.273438 109.941406 303.5 110.421875 303.777344 C 110.898438 304.054688 111.347656 304.375 111.765625 304.742188 C 112.183594 305.105469 112.558594 305.511719 112.898438 305.949219 C 113.234375 306.390625 113.527344 306.859375 113.773438 307.355469 C 114.015625 307.851562 114.210938 308.367188 114.355469 308.902344 C 114.5 309.4375 114.589844 309.984375 114.628906 310.535156 C 114.664062 311.089844 114.648438 311.640625 114.578125 312.191406 Z M 114.578125 312.191406 " fill-opacity="1" fill-rule="nonzero"/></svg>